<svg version="1.1" xmlns="http://www.w3.org/2000/svg" xmlns:xlink="http://www.w3.org/1999/xlink" width="364" height="180"><defs><linearGradient id="cEiamuNVETlf" x1="0px" x2="32px" y1="0px" y2="0px" gradientUnits="userSpaceOnUse"><stop offset="0" stop-color="#807f7f"/><stop offset="1" stop-color="#807f7f"/></linearGradient><linearGradient id="bdSlKiwPFuiE" x1="0px" x2="32px" y1="0px" y2="0px" gradientUnits="userSpaceOnUse"><stop offset="0" stop-color="#807f7f"/><stop offset="1" stop-color="#807f7f"/></linearGradient></defs><g><rect fill="#ffffff" stroke="none" x="0" y="0" width="364" height="180"/><g transform="scale(1,1) translate(-346,-238)"><g><g><text fill="#000000" stroke="none" font-family="sans-serif" font-size="20px" font-style="normal" font-weight="bold" text-decoration="normal" x="416" y="336" text-anchor="middle" dominant-baseline="central">L</text></g><path fill="none" stroke="#807f7f" paint-order="fill stroke markers" d=" M 448 336 L 428 336" stroke-linecap="round" stroke-miterlimit="10" stroke-width="3" stroke-dasharray=""/></g><g><g><text fill="#000000" stroke="none" font-family="sans-serif" font-size="20px" font-style="normal" font-weight="bold" text-decoration="normal" x="640" y="288" text-anchor="middle" dominant-baseline="central">L</text></g><path fill="none" stroke="#807f7f" paint-order="fill stroke markers" d=" M 608 288 L 628 288" stroke-linecap="round" stroke-miterlimit="10" stroke-width="3" stroke-dasharray=""/></g><path fill="none" stroke="#807f7f" paint-order="fill stroke markers" d=" M 480 336 L 448 336" stroke-linecap="round" stroke-miterlimit="10" stroke-width="3" stroke-dasharray=""/><path fill="none" stroke="#807f7f" paint-order="fill stroke markers" d=" M 512 336 L 544 336" stroke-linecap="round" stroke-miterlimit="10" stroke-width="3" stroke-dasharray=""/><g transform="matrix(1,0,0,1,480,336) scale(1,1)"><path fill="none" stroke="url(#cEiamuNVETlf)" paint-order="fill stroke markers" d=" M 0 0 L 0 6.53144959545255e-16 A 5.333333333333333 5.333333333333333 0 0 1 10.666666666666666 0 L 10.666666666666666 0" stroke-linecap="round" stroke-miterlimit="10" stroke-width="3" stroke-dasharray=""/><path fill="none" stroke="url(#cEiamuNVETlf)" paint-order="fill stroke markers" d=" M 10.666666666666666 0 L 10.666666666666668 6.53144959545255e-16 A 5.333333333333333 5.333333333333333 0 0 1 21.333333333333332 0 L 21.333333333333332 0" stroke-linecap="round" stroke-miterlimit="10" stroke-width="3" stroke-dasharray=""/><path fill="none" stroke="url(#cEiamuNVETlf)" paint-order="fill stroke markers" d=" M 21.333333333333332 0 L 21.333333333333336 6.53144959545255e-16 A 5.333333333333333 5.333333333333333 0 0 1 32 0 L 32 0" stroke-linecap="round" stroke-miterlimit="10" stroke-width="3" stroke-dasharray=""/></g><path fill="none" stroke="#000000" paint-order="fill stroke markers" d=" M 471 344 L 521 344" stroke-linecap="round" stroke-miterlimit="10" stroke-width="3" stroke-dasharray=""/><path fill="none" stroke="#000000" paint-order="fill stroke markers" d=" M 521 344 L 521 280" stroke-linecap="round" stroke-miterlimit="10" stroke-width="3" stroke-dasharray=""/><path fill="none" stroke="#000000" paint-order="fill stroke markers" d=" M 521 280 L 471 280" stroke-linecap="round" stroke-miterlimit="10" stroke-width="3" stroke-dasharray=""/><path fill="none" stroke="#000000" paint-order="fill stroke markers" d=" M 471 280 L 471 344" stroke-linecap="round" stroke-miterlimit="10" stroke-width="3" stroke-dasharray=""/><path fill="none" stroke="#404040" paint-order="fill stroke markers" d=" M 496 327 L 496 301" stroke-linecap="round" stroke-miterlimit="10" stroke-dasharray="4,4"/><path fill="none" stroke="#807f7f" paint-order="fill stroke markers" d=" M 448 304 L 480 304" stroke-linecap="round" stroke-miterlimit="10" stroke-width="3"/><path fill="none" stroke="#807f7f" paint-order="fill stroke markers" d=" M 544 288 L 512 288" stroke-linecap="round" stroke-miterlimit="10" stroke-width="3"/><path fill="none" stroke="#807f7f" paint-order="fill stroke markers" d=" M 544 320 L 512 320" stroke-linecap="round" stroke-miterlimit="10" stroke-width="3"/><path fill="none" stroke="#c0c0c0" paint-order="fill stroke markers" d=" M 480 304 L 512 288" stroke-linecap="round" stroke-miterlimit="10" stroke-width="3"/><path fill="none" stroke="#807f7f" paint-order="fill stroke markers" d=" M 544 336 L 544 352" stroke-linecap="round" stroke-miterlimit="10" stroke-width="3"/><path fill="none" stroke="#807f7f" paint-order="fill stroke markers" d=" M 554 352 L 534 352" stroke-linecap="round" stroke-miterlimit="10" stroke-width="3"/><path fill="none" stroke="#807f7f" paint-order="fill stroke markers" d=" M 550 357 L 538 357" stroke-linecap="round" stroke-miterlimit="10" stroke-width="3"/><path fill="none" stroke="#807f7f" paint-order="fill stroke markers" d=" M 546 362 L 542 362" stroke-linecap="round" stroke-miterlimit="10" stroke-width="3"/><path fill="none" stroke="#01fd01" paint-order="fill stroke markers" d=" M 448 304 L 433 304" stroke-linecap="round" stroke-miterlimit="10" stroke-width="3"/><g><text fill="#000000" stroke="none" font-family="sans-serif" font-size="10px" font-style="normal" font-weight="normal" text-decoration="normal" x="411" y="304" text-anchor="start" dominant-baseline="central">+5V</text></g><path fill="none" stroke="#807f7f" paint-order="fill stroke markers" d=" M 576 288 L 576 304" stroke-linecap="round" stroke-miterlimit="10" stroke-width="3"/><path fill="none" stroke="#807f7f" paint-order="fill stroke markers" d=" M 576 336 L 576 352" stroke-linecap="round" stroke-miterlimit="10" stroke-width="3"/><g transform="matrix(0,1,-1,0,576,304)"><rect fill="none" stroke="url(#bdSlKiwPFuiE)" x="0" y="-6" width="32" height="12" stroke-linecap="round" stroke-miterlimit="10" stroke-width="3"/></g><text fill="#000000" stroke="none" font-family="sans-serif" font-size="12px" font-style="normal" font-weight="normal" text-decoration="normal" x="586" y="326" text-anchor="start" dominant-baseline="alphabetic">1k</text><path fill="none" stroke="#807f7f" paint-order="fill stroke markers" d=" M 576 352 L 576 368" stroke-linecap="round" stroke-miterlimit="10" stroke-width="3"/><path fill="none" stroke="#807f7f" paint-order="fill stroke markers" d=" M 586 368 L 566 368" stroke-linecap="round" stroke-miterlimit="10" stroke-width="3"/><path fill="none" stroke="#807f7f" paint-order="fill stroke markers" d=" M 582 373 L 570 373" stroke-linecap="round" stroke-miterlimit="10" stroke-width="3"/><path fill="none" stroke="#807f7f" paint-order="fill stroke markers" d=" M 578 378 L 574 378" stroke-linecap="round" stroke-miterlimit="10" stroke-width="3"/><path fill="none" stroke="#807f7f" paint-order="fill stroke markers" d=" M 544 288 L 576 288" stroke-linecap="round" stroke-miterlimit="10" stroke-width="3"/><text fill="#000000" stroke="none" font-family="sans-serif" font-size="12px" font-style="normal" font-weight="normal" text-decoration="normal" x="560" y="282" text-anchor="start" dominant-baseline="alphabetic"></text><path fill="none" stroke="#807f7f" paint-order="fill stroke markers" d=" M 576 288 L 608 288" stroke-linecap="round" stroke-miterlimit="10" stroke-width="3"/><text fill="#000000" stroke="none" font-family="sans-serif" font-size="12px" font-style="normal" font-weight="normal" text-decoration="normal" x="592" y="282" text-anchor="start" dominant-baseline="alphabetic"></text><path fill="#000000" stroke="none" paint-order="stroke fill markers" d=" M 547 320 A 3 3 0 1 1 546.9999999999577 319.99998407846124 Z"/><path fill="#000000" stroke="none" paint-order="stroke fill markers" d=" M 579 288 A 3 3 0 1 1 578.9999999999577 287.99998407846124 Z"/></g></g></svg>