<?xml version="1.0" encoding="UTF-8" standalone="no"?>
<svg version="1.1" width="500" height="500" id="svg11" xmlns="http://www.w3.org/2000/svg"
   xmlns:svg="http://www.w3.org/2000/svg">

   <rect
      style="fill:#ffffff;fill-opacity:0.972549;stroke-width:3.77953;stroke-linecap:round;stroke-linejoin:round;stroke-opacity:0.898039"
      id="rect1" width="500" height="500" x="0" y="0" />
   <path fill="#000000" stroke="none" paint-order="stroke fill markers"
      d="m 300.43976,486.3735 c 0,-35.12629 -18.42988,-67.67697 -48.55042,-85.74929 l -51.44958,85.74929 z"
      fill-opacity="0.0980392" id="path2" clip-path="url(#clipPath26)" transform="translate(-161.46441,-36.037094)" />
   <path fill="none" stroke="#000000" paint-order="fill stroke markers"
      d="m 300.43976,486.3735 c 0,-35.12629 -18.42988,-67.67697 -48.55042,-85.74929 l -51.44958,85.74929 z"
      stroke-opacity="0.6" stroke-linecap="round" stroke-linejoin="round" stroke-miterlimit="10" stroke-width="2"
      id="path3" clip-path="url(#clipPath24)" transform="translate(-161.46441,-36.037094)"
      style="stroke-width:3.77952756;stroke-miterlimit:10;stroke-dasharray:none" />
   <path
      d="m 97.269955,425.96291 h -1.64843 l -1.14063,-3.24219 h -5.03125 l -1.14062,3.24219 h -1.57032 l 4.23438,-11.63281 h 2.0625 z m -3.26562,-4.57031 -2.03906,-5.71094 -2.04688,5.71094 z"
      id="text3" style="font-size:16px;font-family:geogebra-sans-serif, sans-serif;dominant-baseline:alphabetic"
      aria-label="A" />
   <path fill="#000000" stroke="none" paint-order="stroke fill markers"
      d="m 585.35001,393.52583 c -37.96584,15.18634 -62.86094,51.95721 -62.86094,92.84767 h 100 z"
      fill-opacity="0.0980392" id="path4" clip-path="url(#clipPath22)" transform="translate(-161.46441,-36.037094)" />
   <path fill="none" stroke="#000000" paint-order="fill stroke markers"
      d="m 585.35001,393.52583 c -37.96584,15.18634 -62.86094,51.95721 -62.86094,92.84767 h 100 z" stroke-opacity="0.6"
      stroke-linecap="round" stroke-linejoin="round" stroke-miterlimit="10" stroke-width="2" id="path5"
      clip-path="url(#clipPath20)" transform="translate(-161.46441,-36.037094)"
      style="stroke-width:3.77952756;stroke-miterlimit:10;stroke-dasharray:none" />
   <path
      d="m 418.87153,418.38478 q 0,0.86719 -0.32813,1.53125 -0.32812,0.66407 -0.88281,1.09375 -0.65625,0.51563 -1.44531,0.73438 -0.78125,0.21875 -1.99219,0.21875 h -4.125 V 410.3301 h 3.44531 q 1.27344,0 1.90625,0.0937 0.63281,0.0937 1.21094,0.39062 0.64062,0.33594 0.92969,0.86719 0.28906,0.52344 0.28906,1.25781 0,0.82813 -0.42188,1.41406 -0.42187,0.57813 -1.125,0.92969 v 0.0625 q 1.17969,0.24219 1.85938,1.03906 0.67969,0.78907 0.67969,2 z m -2.60157,-5.24218 q 0,-0.42188 -0.14062,-0.71094 -0.14063,-0.28906 -0.45313,-0.46875 -0.36718,-0.21094 -0.89062,-0.25781 -0.52344,-0.0547 -1.29688,-0.0547 h -1.84375 v 3.35938 h 2 q 0.72657,0 1.15625,-0.0703 0.42969,-0.0781 0.79688,-0.3125 0.36719,-0.23437 0.51562,-0.60156 0.15625,-0.375 0.15625,-0.88281 z m 0.99219,5.30468 q 0,-0.70312 -0.21094,-1.11718 -0.21093,-0.41407 -0.76562,-0.70313 -0.375,-0.19531 -0.91406,-0.25 -0.53125,-0.0625 -1.29688,-0.0625 h -2.42969 v 4.32813 h 2.04688 q 1.01562,0 1.66406,-0.10157 0.64844,-0.10937 1.0625,-0.39062 0.4375,-0.30469 0.64063,-0.69531 0.20312,-0.39063 0.20312,-1.00782 z"
      id="text5" style="font-size:16px;font-family:geogebra-sans-serif, sans-serif;dominant-baseline:alphabetic"
      aria-label="B" />
   <path
      d="m 255.17968,472.96291 h -1.54687 v -10.02344 l -3.23438,6.82031 h -0.92187 l -3.21094,-6.82031 v 10.02344 h -1.44531 V 461.3301 h 2.10937 l 3.10158,6.47656 3,-6.47656 h 2.14842 z"
      id="text6"
      style="font-size:16px;font-family:geogebra-sans-serif, sans-serif;dominant-baseline:alphabetic;fill:#6e6d73"
      aria-label="M" />
   <path fill="none" stroke="#6e6d73" paint-order="fill stroke markers" d="M 200.43976,486.3735 H 622.48907"
      stroke-opacity="0.8" stroke-linecap="round" stroke-linejoin="round" stroke-miterlimit="10" stroke-width="2.5"
      id="path6" clip-path="url(#clipPath18)" transform="translate(-161.46441,-36.037094)"
      style="stroke:#000000;stroke-opacity:0.80000001;stroke-width:3.77952756;stroke-miterlimit:10;stroke-dasharray:none" />
   <path
      d="m 150.71527,220.9629 h -1.46875 v -4.96875 q 0,-0.5625 -0.0547,-1.08593 -0.0469,-0.52344 -0.21094,-0.83594 -0.17969,-0.33593 -0.51561,-0.50781 -0.33594,-0.17188 -0.96875,-0.17188 -0.61719,0 -1.23439,0.3125 -0.61719,0.30468 -1.23436,0.78125 0.0234,0.17968 0.0391,0.42188 0.0156,0.23437 0.0156,0.46875 v 5.58593 h -1.46875 v -4.96875 q 0,-0.57812 -0.0547,-1.09375 -0.0469,-0.52343 -0.21094,-0.83593 -0.17969,-0.33594 -0.51563,-0.5 -0.33593,-0.17188 -0.96875,-0.17188 -0.60156,0 -1.21093,0.29688 -0.60157,0.29687 -1.20313,0.75781 v 6.51562 h -1.46875 v -8.72656 h 1.46875 v 0.96875 q 0.6875,-0.57032 1.36719,-0.89062 0.6875,-0.32032 1.46094,-0.32032 0.89061,0 1.50781,0.375 0.625,0.375 0.92969,1.03907 0.89061,-0.75 1.625,-1.07813 0.73436,-0.33594 1.57031,-0.33594 1.4375,0 2.11719,0.875 0.6875,0.86719 0.6875,2.42969 z"
      id="text7" style="fill:#6e6d73" aria-label="m" />
   <path
      d="m 156.73382,227.9629 h -1.27831 v -0.81348 q -0.17091,0.11621 -0.46485,0.32813 -0.2871,0.20508 -0.56055,0.32812 -0.32129,0.15723 -0.73828,0.25977 -0.41699,0.10938 -0.97754,0.10938 -1.03223,0 -1.75,-0.68359 -0.71777,-0.6836 -0.71777,-1.74316 0,-0.86817 0.36914,-1.40137 0.37597,-0.54004 1.0664,-0.84766 0.69727,-0.30761 1.67481,-0.41699 0.97754,-0.10937 2.09863,-0.16406 v -0.19824 q 0,-0.4375 -0.15722,-0.72461 -0.1504,-0.28711 -0.4375,-0.45118 -0.27344,-0.15722 -0.65625,-0.21191 -0.38282,-0.0547 -0.7998,-0.0547 -0.50587,0 -1.12794,0.13672 -0.62206,0.12988 -1.28516,0.38281 h -0.0684 v -1.30566 q 0.37597,-0.10254 1.08691,-0.22559 0.71094,-0.12304 1.40137,-0.12304 0.80664,0 1.40136,0.13672 0.60157,0.12988 1.03907,0.45117 0.43066,0.31445 0.65625,0.81347 0.22558,0.49903 0.22558,1.23731 z m -1.27831,-1.87988 v -2.12598 q -0.5879,0.0342 -1.3877,0.10254 -0.79297,0.0684 -1.25781,0.19824 -0.55371,0.15723 -0.8955,0.49219 -0.34181,0.32812 -0.34181,0.90918 0,0.65625 0.39648,0.99121 0.39649,0.32812 1.20996,0.32812 0.67676,0 1.23731,-0.25976 0.56055,-0.2666 1.03907,-0.63574 z"
      id="text8"
      style="font-size:14px;font-family:geogebra-sans-serif, sans-serif;dominant-baseline:alphabetic;fill:#6e6d73"
      aria-label="a" />
   <path fill="none" stroke="#6e6d73" paint-order="fill stroke markers" d="M 200.43976,486.3735 453.66935,64.324189"
      stroke-opacity="0.8" stroke-linecap="round" stroke-linejoin="round" stroke-miterlimit="10" stroke-width="2.5"
      id="path8" clip-path="url(#clipPath16)" transform="translate(-161.46441,-36.037094)"
      style="stroke:#000000;stroke-opacity:0.80000001;stroke-width:3.77952756;stroke-miterlimit:10;stroke-dasharray:none" />
   <path
      d="m 398.71528,233.9629 h -1.46875 v -4.96875 q 0,-0.5625 -0.0547,-1.08593 -0.0469,-0.52344 -0.21094,-0.83594 -0.17969,-0.33593 -0.51562,-0.50781 -0.33594,-0.17188 -0.96875,-0.17188 -0.61719,0 -1.23438,0.3125 -0.61719,0.30468 -1.23437,0.78125 0.0234,0.17968 0.0391,0.42188 0.0156,0.23437 0.0156,0.46875 v 5.58593 h -1.46875 v -4.96875 q 0,-0.57812 -0.0547,-1.09375 -0.0469,-0.52343 -0.21094,-0.83593 -0.17969,-0.33594 -0.51563,-0.5 -0.33593,-0.17188 -0.96875,-0.17188 -0.60156,0 -1.21093,0.29688 -0.60157,0.29687 -1.20313,0.75781 v 6.51562 h -1.46875 v -8.72656 h 1.46875 v 0.96875 q 0.6875,-0.57032 1.36719,-0.89062 0.6875,-0.32032 1.46094,-0.32032 0.89062,0 1.50781,0.375 0.625,0.375 0.92969,1.03907 0.89062,-0.75 1.625,-1.07813 0.73437,-0.33594 1.57031,-0.33594 1.4375,0 2.11719,0.875 0.6875,0.86719 0.6875,2.42969 z"
      id="text9"
      style="font-size:16px;font-family:geogebra-sans-serif, sans-serif;dominant-baseline:alphabetic;fill:#6e6d73"
      aria-label="m" />
   <path
      d="m 405.51995,237.08692 q 0,0.95703 -0.27343,1.72266 -0.2666,0.76562 -0.72461,1.28516 -0.48535,0.54003 -1.06641,0.81347 -0.58105,0.2666 -1.27832,0.2666 -0.64941,0 -1.13476,-0.15722 -0.48536,-0.15039 -0.95704,-0.41016 l -0.082,0.35547 h -1.20312 v -10.63672 h 1.28515 v 3.80078 q 0.54004,-0.44433 1.14844,-0.72461 0.6084,-0.28711 1.36719,-0.28711 1.35352,0 2.13281,1.03907 0.78613,1.03906 0.78613,2.93261 z m -1.32617,0.0342 q 0,-1.36718 -0.45117,-2.07129 -0.45117,-0.71093 -1.45605,-0.71093 -0.56054,0 -1.13477,0.24609 -0.57422,0.23926 -1.06641,0.62207 v 4.375 q 0.54688,0.24609 0.93653,0.3418 0.39648,0.0957 0.89551,0.0957 1.0664,0 1.66796,-0.69727 0.6084,-0.7041 0.6084,-2.20117 z"
      id="text10"
      style="font-size:14px;font-family:geogebra-sans-serif, sans-serif;dominant-baseline:alphabetic;fill:#6e6d73"
      aria-label="b" />
   <path fill="none" stroke="#6e6d73" paint-order="fill stroke markers" d="M 453.66935,64.324189 622.48907,486.3735"
      stroke-opacity="0.8" stroke-linecap="round" stroke-linejoin="round" stroke-miterlimit="10" stroke-width="2.5"
      id="path10" clip-path="url(#clipPath14)" transform="translate(-161.46441,-36.037094)"
      style="stroke-width:3.77952756;stroke-miterlimit:10;stroke-dasharray:none;stroke:#000003;stroke-opacity:0.80000001" />
   <path id="text30"
      style="font-weight:bold;font-size:16px;font-family:geogebra-sans-serif, sans-serif;-inkscape-font-specification:'geogebra-sans-serif, sans-serif, Bold';text-align:center;text-anchor:middle;fill:#6e6d73;fill-opacity:0.972549;stroke-width:3.77953;stroke-linecap:round;stroke-linejoin:round;stroke-opacity:0.898039"
      d="m 147.96527,204.7754 c -0.0104,0.47396 -0.0312,0.90625 -0.0625,1.29688 -0.0312,0.39062 -0.0911,0.72395 -0.17969,1 -0.0833,0.27604 -0.21094,0.48958 -0.38281,0.64062 -0.17188,0.15104 -0.40625,0.22657 -0.70313,0.22657 -0.14062,0 -0.28125,-0.0391 -0.42187,-0.11718 -0.13542,-0.0833 -0.28907,-0.21355 -0.46094,-0.39063 -0.16146,-0.17188 -0.31771,-0.35417 -0.46875,-0.54687 -0.14583,-0.19793 -0.28125,-0.3724 -0.40625,-0.52344 -0.17708,-0.20834 -0.35676,-0.40365 -0.53906,-0.58594 -0.17709,-0.18229 -0.375,-0.34635 -0.59375,-0.49219 -0.23438,-0.14583 -0.49479,-0.26302 -0.78125,-0.35156 -0.28646,-0.0937 -0.60677,-0.14063 -0.96094,-0.14063 -1.09896,0 -1.9375,0.45053 -2.51563,1.35157 -0.57812,0.89583 -0.86718,2.21614 -0.86718,3.96093 h 2.10937 c 0.0104,-0.40624 0.0286,-0.82031 0.0547,-1.24218 0.0312,-0.42188 0.0937,-0.77344 0.1875,-1.05469 0.0885,-0.25521 0.21354,-0.46354 0.375,-0.625 0.16146,-0.16146 0.39844,-0.24219 0.71094,-0.24219 0.17187,0 0.32552,0.0469 0.46094,0.14063 0.14062,0.0885 0.28645,0.21354 0.4375,0.375 0.11979,0.125 0.26302,0.29687 0.42968,0.51562 0.17188,0.21354 0.32032,0.39584 0.44532,0.54688 0.1875,0.21875 0.36718,0.41927 0.53906,0.60156 0.17708,0.17708 0.375,0.34115 0.59375,0.49219 0.22396,0.14583 0.47396,0.26302 0.75,0.35156 0.28125,0.0833 0.60677,0.125 0.97656,0.125 1.11979,0 1.96094,-0.45833 2.52344,-1.375 0.56771,-0.91667 0.85416,-2.22917 0.85937,-3.9375 z" />
   <path id="path30"
      style="font-weight:bold;font-size:16px;font-family:geogebra-sans-serif, sans-serif;-inkscape-font-specification:'geogebra-sans-serif, sans-serif, Bold';text-align:center;text-anchor:middle;fill:#6e6d73;fill-opacity:0.972549;stroke-width:3.77953;stroke-linecap:round;stroke-linejoin:round;stroke-opacity:0.898039"
      d="m 395.96528,217.47853 c -0.0104,0.47396 -0.0312,0.90625 -0.0625,1.29688 -0.0312,0.39062 -0.0911,0.72395 -0.17969,1 -0.0833,0.27604 -0.21094,0.48958 -0.38281,0.64062 -0.17188,0.15104 -0.40625,0.22656 -0.70313,0.22656 -0.14062,0 -0.28125,-0.0391 -0.42187,-0.11718 -0.13543,-0.0833 -0.28907,-0.21355 -0.46094,-0.39062 -0.16146,-0.17188 -0.31771,-0.35418 -0.46875,-0.54688 -0.14583,-0.19792 -0.28125,-0.3724 -0.40625,-0.52343 -0.17708,-0.20834 -0.35677,-0.40365 -0.53906,-0.58594 -0.1771,-0.18229 -0.375,-0.34635 -0.59375,-0.49219 -0.23438,-0.14583 -0.4948,-0.26302 -0.78125,-0.35156 -0.28646,-0.0937 -0.60677,-0.14063 -0.96094,-0.14063 -1.09896,0 -1.9375,0.45053 -2.51563,1.35157 -0.57812,0.89583 -0.86718,2.21614 -0.86718,3.96093 h 2.10937 c 0.0104,-0.40624 0.0286,-0.82031 0.0547,-1.24218 0.0312,-0.42188 0.0937,-0.77344 0.1875,-1.05469 0.0885,-0.25521 0.21354,-0.46354 0.375,-0.625 0.16146,-0.16146 0.39844,-0.24219 0.71094,-0.24219 0.17187,0 0.32552,0.0469 0.46094,0.14063 0.14062,0.0885 0.28645,0.21354 0.4375,0.375 0.11979,0.125 0.26302,0.29687 0.42968,0.51562 0.17188,0.21354 0.32032,0.39584 0.44532,0.54688 0.1875,0.21875 0.36718,0.41927 0.53906,0.60156 0.17708,0.17708 0.375,0.34115 0.59375,0.49219 0.22396,0.14583 0.47396,0.26302 0.75,0.35156 0.28125,0.0833 0.60677,0.125 0.97656,0.125 1.11979,0 1.96094,-0.45833 2.52344,-1.375 0.56771,-0.91667 0.85416,-2.22917 0.85937,-3.9375 z" />
   <path id="path31"
      style="font-weight:bold;font-size:16px;font-family:geogebra-sans-serif, sans-serif;-inkscape-font-specification:'geogebra-sans-serif, sans-serif, Bold';text-align:center;text-anchor:middle;fill:#6e6d73;fill-opacity:0.972549;stroke-width:3.77953;stroke-linecap:round;stroke-linejoin:round;stroke-opacity:0.898039"
      d="m 253.61718,454.00198 c -0.0104,0.47395 -0.0312,0.90625 -0.0625,1.29687 -0.0312,0.39063 -0.0911,0.72395 -0.17968,1 -0.0833,0.27605 -0.21094,0.48958 -0.38282,0.64063 -0.17187,0.15104 -0.40625,0.22656 -0.70312,0.22656 -0.14063,0 -0.28125,-0.0391 -0.42188,-0.11719 -0.13542,-0.0833 -0.28907,-0.21355 -0.46093,-0.39062 -0.16147,-0.17188 -0.31772,-0.35418 -0.46875,-0.54688 -0.14583,-0.19792 -0.28125,-0.3724 -0.40625,-0.52344 -0.17708,-0.20834 -0.35678,-0.40365 -0.53907,-0.58593 -0.17708,-0.1823 -0.375,-0.34635 -0.59375,-0.49219 -0.23437,-0.14583 -0.49479,-0.26302 -0.78125,-0.35156 -0.28646,-0.0937 -0.60677,-0.14063 -0.96093,-0.14063 -1.09897,0 -1.9375,0.45053 -2.51563,1.35156 -0.57812,0.89583 -0.86718,2.21614 -0.86718,3.96094 h 2.10937 c 0.0104,-0.40625 0.0286,-0.82031 0.0547,-1.24219 0.0312,-0.42187 0.0937,-0.77343 0.1875,-1.05468 0.0885,-0.25521 0.21354,-0.46355 0.375,-0.625 0.16146,-0.16146 0.39844,-0.24219 0.71094,-0.24219 0.17187,0 0.32552,0.0469 0.46094,0.14062 0.14062,0.0885 0.28645,0.21355 0.4375,0.375 0.11979,0.125 0.26302,0.29688 0.42968,0.51563 0.17187,0.21354 0.32032,0.39584 0.44532,0.54687 0.1875,0.21875 0.36718,0.41927 0.53906,0.60157 0.17708,0.17707 0.375,0.34115 0.59375,0.49218 0.22396,0.14583 0.47396,0.26302 0.75,0.35157 0.28125,0.0833 0.60677,0.125 0.97656,0.125 1.11979,0 1.96094,-0.45833 2.52344,-1.375 0.56771,-0.91668 0.85416,-2.22918 0.85937,-3.9375 z" />
</svg>