<svg version="1.1" xmlns="http://www.w3.org/2000/svg" xmlns:xlink="http://www.w3.org/1999/xlink" width="724" height="722"><defs><clipPath id="LXkXtkuPILLW"><path fill="none" stroke="none" d=" M 0 0 L 724 0 L 724 722 L 0 722 L 0 0 Z"/></clipPath></defs><g transform="scale(1,1)" clip-path="url(#LXkXtkuPILLW)"><g><rect fill="rgb(255,255,255)" stroke="none" x="0" y="0" width="724" height="722" fill-opacity="1"/><path fill="none" stroke="rgb(192,192,192)" paint-order="fill stroke markers" d=" M -45.5 0.5 L -45.5 722.5 M -45.5 0.5 L -45.5 722.5 M 35.5 0.5 L 35.5 722.5 M 116.5 0.5 L 116.5 722.5 M 197.5 0.5 L 197.5 722.5 M 279.5 0.5 L 279.5 722.5 M 360.5 0.5 L 360.5 722.5 M 441.5 0.5 L 441.5 722.5 M 522.5 0.5 L 522.5 722.5 M 604.5 0.5 L 604.5 722.5 M 685.5 0.5 L 685.5 722.5" stroke-opacity="1" stroke-linecap="round" stroke-linejoin="round" stroke-miterlimit="10"/><path fill="none" stroke="rgb(192,192,192)" paint-order="fill stroke markers" d=" M -13.5 0.5 L -13.5 722.5 M 3.5 0.5 L 3.5 722.5 M 19.5 0.5 L 19.5 722.5 M 51.5 0.5 L 51.5 722.5 M 68.5 0.5 L 68.5 722.5 M 84.5 0.5 L 84.5 722.5 M 100.5 0.5 L 100.5 722.5 M 132.5 0.5 L 132.5 722.5 M 149.5 0.5 L 149.5 722.5 M 165.5 0.5 L 165.5 722.5 M 181.5 0.5 L 181.5 722.5 M 214.5 0.5 L 214.5 722.5 M 230.5 0.5 L 230.5 722.5 M 246.5 0.5 L 246.5 722.5 M 262.5 0.5 L 262.5 722.5 M 295.5 0.5 L 295.5 722.5 M 311.5 0.5 L 311.5 722.5 M 327.5 0.5 L 327.5 722.5 M 344.5 0.5 L 344.5 722.5 M 376.5 0.5 L 376.5 722.5 M 392.5 0.5 L 392.5 722.5 M 409.5 0.5 L 409.5 722.5 M 425.5 0.5 L 425.5 722.5 M 457.5 0.5 L 457.5 722.5 M 474.5 0.5 L 474.5 722.5 M 490.5 0.5 L 490.5 722.5 M 506.5 0.5 L 506.5 722.5 M 539.5 0.5 L 539.5 722.5 M 555.5 0.5 L 555.5 722.5 M 571.5 0.5 L 571.5 722.5 M 587.5 0.5 L 587.5 722.5 M 620.5 0.5 L 620.5 722.5 M 636.5 0.5 L 636.5 722.5 M 652.5 0.5 L 652.5 722.5 M 669.5 0.5 L 669.5 722.5 M 701.5 0.5 L 701.5 722.5 M 717.5 0.5 L 717.5 722.5" stroke-opacity="0.23529411764705882" stroke-linecap="round" stroke-linejoin="round" stroke-miterlimit="10"/><path fill="none" stroke="rgb(192,192,192)" paint-order="fill stroke markers" d=" M 0.5 18.5 L 724.5 18.5 M 0.5 18.5 L 724.5 18.5 M 0.5 99.5 L 724.5 99.5 M 0.5 180.5 L 724.5 180.5 M 0.5 261.5 L 724.5 261.5 M 0.5 343.5 L 724.5 343.5 M 0.5 424.5 L 724.5 424.5 M 0.5 505.5 L 724.5 505.5 M 0.5 586.5 L 724.5 586.5 M 0.5 668.5 L 724.5 668.5" stroke-opacity="1" stroke-linecap="round" stroke-linejoin="round" stroke-miterlimit="10"/><path fill="none" stroke="rgb(192,192,192)" paint-order="fill stroke markers" d=" M 0.5 2.5 L 724.5 2.5 M 0.5 2.5 L 724.5 2.5 M 0.5 34.5 L 724.5 34.5 M 0.5 50.5 L 724.5 50.5 M 0.5 67.5 L 724.5 67.5 M 0.5 83.5 L 724.5 83.5 M 0.5 115.5 L 724.5 115.5 M 0.5 132.5 L 724.5 132.5 M 0.5 148.5 L 724.5 148.5 M 0.5 164.5 L 724.5 164.5 M 0.5 196.5 L 724.5 196.5 M 0.5 213.5 L 724.5 213.5 M 0.5 229.5 L 724.5 229.5 M 0.5 245.5 L 724.5 245.5 M 0.5 278.5 L 724.5 278.5 M 0.5 294.5 L 724.5 294.5 M 0.5 310.5 L 724.5 310.5 M 0.5 326.5 L 724.5 326.5 M 0.5 359.5 L 724.5 359.5 M 0.5 375.5 L 724.5 375.5 M 0.5 391.5 L 724.5 391.5 M 0.5 408.5 L 724.5 408.5 M 0.5 440.5 L 724.5 440.5 M 0.5 456.5 L 724.5 456.5 M 0.5 473.5 L 724.5 473.5 M 0.5 489.5 L 724.5 489.5 M 0.5 521.5 L 724.5 521.5 M 0.5 538.5 L 724.5 538.5 M 0.5 554.5 L 724.5 554.5 M 0.5 570.5 L 724.5 570.5 M 0.5 603.5 L 724.5 603.5 M 0.5 619.5 L 724.5 619.5 M 0.5 635.5 L 724.5 635.5 M 0.5 651.5 L 724.5 651.5 M 0.5 684.5 L 724.5 684.5 M 0.5 700.5 L 724.5 700.5 M 0.5 716.5 L 724.5 716.5" stroke-opacity="0.23529411764705882" stroke-linecap="round" stroke-linejoin="round" stroke-miterlimit="10"/><text fill="rgb(0,0,0)" stroke="none" font-family="geogebra-sans-serif, sans-serif" font-size="16px" font-style="normal" font-weight="normal" text-decoration="normal" x="349" y="328" text-anchor="start" dominant-baseline="alphabetic" fill-opacity="1">e</text><text fill="none" stroke="rgb(255,255,255)" font-family="geogebra-sans-serif, sans-serif" font-size="16px" font-style="normal" font-weight="normal" text-decoration="normal" x="349" y="328" text-anchor="start" dominant-baseline="alphabetic" stroke-opacity="1" stroke-linejoin="bevel" stroke-miterlimit="10" stroke-width="3">e</text><text fill="rgb(0,0,0)" stroke="none" font-family="geogebra-sans-serif, sans-serif" font-size="16px" font-style="normal" font-weight="normal" text-decoration="normal" x="349" y="328" text-anchor="start" dominant-baseline="alphabetic" fill-opacity="1">e</text><text fill="rgb(0,0,0)" stroke="none" font-family="geogebra-sans-serif, sans-serif" font-size="14px" font-style="normal" font-weight="normal" text-decoration="normal" x="358" y="335" text-anchor="start" dominant-baseline="alphabetic" fill-opacity="1">n</text><text fill="none" stroke="rgb(255,255,255)" font-family="geogebra-sans-serif, sans-serif" font-size="14px" font-style="normal" font-weight="normal" text-decoration="normal" x="358" y="335" text-anchor="start" dominant-baseline="alphabetic" stroke-opacity="1" stroke-linejoin="bevel" stroke-miterlimit="10" stroke-width="3">n</text><text fill="rgb(0,0,0)" stroke="none" font-family="geogebra-sans-serif, sans-serif" font-size="14px" font-style="normal" font-weight="normal" text-decoration="normal" x="358" y="335" text-anchor="start" dominant-baseline="alphabetic" fill-opacity="1">n</text><path fill="none" stroke="rgb(0,0,0)" paint-order="fill stroke markers" d=" M 116.73887717273874 424.4145063759023 L 604.0677708339416 261.9715418221687" stroke-opacity="0.6980392156862745" stroke-linecap="round" stroke-linejoin="round" stroke-miterlimit="10" stroke-width="2.5"/><path fill="rgb(68,68,68)" stroke="none" paint-order="stroke fill markers" d=" M 120.73887717273874 424.4145063759023 C 120.73887717273874 426.62364537522546 118.94801617206191 428.4145063759023 116.73887717273874 428.4145063759023 C 114.52973817341557 428.4145063759023 112.73887717273874 426.62364537522546 112.73887717273874 424.4145063759023 C 112.73887717273874 422.20536737657915 114.52973817341557 420.4145063759023 116.73887717273874 420.4145063759023 C 118.94801617206191 420.4145063759023 120.73887717273874 422.20536737657915 120.73887717273874 424.4145063759023 Z" fill-opacity="1"/><path fill="none" stroke="rgb(0,0,0)" paint-order="fill stroke markers" d=" M 120.73887717273874 424.4145063759023 C 120.73887717273874 426.62364537522546 118.94801617206191 428.4145063759023 116.73887717273874 428.4145063759023 C 114.52973817341557 428.4145063759023 112.73887717273874 426.62364537522546 112.73887717273874 424.4145063759023 C 112.73887717273874 422.20536737657915 114.52973817341557 420.4145063759023 116.73887717273874 420.4145063759023 C 118.94801617206191 420.4145063759023 120.73887717273874 422.20536737657915 120.73887717273874 424.4145063759023 Z" stroke-opacity="1" stroke-linecap="round" stroke-linejoin="round" stroke-miterlimit="10"/><text fill="rgb(68,68,68)" stroke="none" font-family="geogebra-sans-serif, sans-serif" font-size="16px" font-style="normal" font-weight="normal" text-decoration="normal" x="73" y="405" text-anchor="start" dominant-baseline="alphabetic" fill-opacity="1">(x</text><text fill="none" stroke="rgb(255,255,255)" font-family="geogebra-sans-serif, sans-serif" font-size="16px" font-style="normal" font-weight="normal" text-decoration="normal" x="73" y="405" text-anchor="start" dominant-baseline="alphabetic" stroke-opacity="1" stroke-linejoin="bevel" stroke-miterlimit="10" stroke-width="3">(x</text><text fill="rgb(68,68,68)" stroke="none" font-family="geogebra-sans-serif, sans-serif" font-size="16px" font-style="normal" font-weight="normal" text-decoration="normal" x="73" y="405" text-anchor="start" dominant-baseline="alphabetic" fill-opacity="1">(x</text><text fill="rgb(68,68,68)" stroke="none" font-family="geogebra-sans-serif, sans-serif" font-size="14px" font-style="normal" font-weight="normal" text-decoration="normal" x="86" y="412" text-anchor="start" dominant-baseline="alphabetic" fill-opacity="1">n</text><text fill="none" stroke="rgb(255,255,255)" font-family="geogebra-sans-serif, sans-serif" font-size="14px" font-style="normal" font-weight="normal" text-decoration="normal" x="86" y="412" text-anchor="start" dominant-baseline="alphabetic" stroke-opacity="1" stroke-linejoin="bevel" stroke-miterlimit="10" stroke-width="3">n</text><text fill="rgb(68,68,68)" stroke="none" font-family="geogebra-sans-serif, sans-serif" font-size="14px" font-style="normal" font-weight="normal" text-decoration="normal" x="86" y="412" text-anchor="start" dominant-baseline="alphabetic" fill-opacity="1">n</text><text fill="rgb(68,68,68)" stroke="none" font-family="geogebra-sans-serif, sans-serif" font-size="16px" font-style="normal" font-weight="normal" text-decoration="normal" x="94" y="405" text-anchor="start" dominant-baseline="alphabetic" fill-opacity="1">,y</text><text fill="none" stroke="rgb(255,255,255)" font-family="geogebra-sans-serif, sans-serif" font-size="16px" font-style="normal" font-weight="normal" text-decoration="normal" x="94" y="405" text-anchor="start" dominant-baseline="alphabetic" stroke-opacity="1" stroke-linejoin="bevel" stroke-miterlimit="10" stroke-width="3">,y</text><text fill="rgb(68,68,68)" stroke="none" font-family="geogebra-sans-serif, sans-serif" font-size="16px" font-style="normal" font-weight="normal" text-decoration="normal" x="94" y="405" text-anchor="start" dominant-baseline="alphabetic" fill-opacity="1">,y</text><text fill="rgb(68,68,68)" stroke="none" font-family="geogebra-sans-serif, sans-serif" font-size="14px" font-style="normal" font-weight="normal" text-decoration="normal" x="106" y="412" text-anchor="start" dominant-baseline="alphabetic" fill-opacity="1">n</text><text fill="none" stroke="rgb(255,255,255)" font-family="geogebra-sans-serif, sans-serif" font-size="14px" font-style="normal" font-weight="normal" text-decoration="normal" x="106" y="412" text-anchor="start" dominant-baseline="alphabetic" stroke-opacity="1" stroke-linejoin="bevel" stroke-miterlimit="10" stroke-width="3">n</text><text fill="rgb(68,68,68)" stroke="none" font-family="geogebra-sans-serif, sans-serif" font-size="14px" font-style="normal" font-weight="normal" text-decoration="normal" x="106" y="412" text-anchor="start" dominant-baseline="alphabetic" fill-opacity="1">n</text><text fill="rgb(68,68,68)" stroke="none" font-family="geogebra-sans-serif, sans-serif" font-size="16px" font-style="normal" font-weight="normal" text-decoration="normal" x="114" y="405" text-anchor="start" dominant-baseline="alphabetic" fill-opacity="1">)</text><text fill="none" stroke="rgb(255,255,255)" font-family="geogebra-sans-serif, sans-serif" font-size="16px" font-style="normal" font-weight="normal" text-decoration="normal" x="114" y="405" text-anchor="start" dominant-baseline="alphabetic" stroke-opacity="1" stroke-linejoin="bevel" stroke-miterlimit="10" stroke-width="3">)</text><text fill="rgb(68,68,68)" stroke="none" font-family="geogebra-sans-serif, sans-serif" font-size="16px" font-style="normal" font-weight="normal" text-decoration="normal" x="114" y="405" text-anchor="start" dominant-baseline="alphabetic" fill-opacity="1">)</text><path fill="rgb(68,68,68)" stroke="none" paint-order="stroke fill markers" d=" M 608.0677708339416 261.9715418221687 C 608.0677708339416 264.1806808214919 606.2769098332648 265.9715418221687 604.0677708339416 265.9715418221687 C 601.8586318346184 265.9715418221687 600.0677708339416 264.1806808214919 600.0677708339416 261.9715418221687 C 600.0677708339416 259.76240282284556 601.8586318346184 257.9715418221687 604.0677708339416 257.9715418221687 C 606.2769098332648 257.9715418221687 608.0677708339416 259.76240282284556 608.0677708339416 261.9715418221687 Z" fill-opacity="1"/><path fill="none" stroke="rgb(0,0,0)" paint-order="fill stroke markers" d=" M 608.0677708339416 261.9715418221687 C 608.0677708339416 264.1806808214919 606.2769098332648 265.9715418221687 604.0677708339416 265.9715418221687 C 601.8586318346184 265.9715418221687 600.0677708339416 264.1806808214919 600.0677708339416 261.9715418221687 C 600.0677708339416 259.76240282284556 601.8586318346184 257.9715418221687 604.0677708339416 257.9715418221687 C 606.2769098332648 257.9715418221687 608.0677708339416 259.76240282284556 608.0677708339416 261.9715418221687 Z" stroke-opacity="1" stroke-linecap="round" stroke-linejoin="round" stroke-miterlimit="10"/><text fill="rgb(68,68,68)" stroke="none" font-family="geogebra-sans-serif, sans-serif" font-size="16px" font-style="normal" font-weight="normal" text-decoration="normal" x="574" y="247" text-anchor="start" dominant-baseline="alphabetic" fill-opacity="1">(x</text><text fill="none" stroke="rgb(255,255,255)" font-family="geogebra-sans-serif, sans-serif" font-size="16px" font-style="normal" font-weight="normal" text-decoration="normal" x="574" y="247" text-anchor="start" dominant-baseline="alphabetic" stroke-opacity="1" stroke-linejoin="bevel" stroke-miterlimit="10" stroke-width="3">(x</text><text fill="rgb(68,68,68)" stroke="none" font-family="geogebra-sans-serif, sans-serif" font-size="16px" font-style="normal" font-weight="normal" text-decoration="normal" x="574" y="247" text-anchor="start" dominant-baseline="alphabetic" fill-opacity="1">(x</text><text fill="rgb(68,68,68)" stroke="none" font-family="geogebra-sans-serif, sans-serif" font-size="14px" font-style="normal" font-weight="normal" text-decoration="normal" x="587" y="254" text-anchor="start" dominant-baseline="alphabetic" fill-opacity="1">n+1</text><text fill="none" stroke="rgb(255,255,255)" font-family="geogebra-sans-serif, sans-serif" font-size="14px" font-style="normal" font-weight="normal" text-decoration="normal" x="587" y="254" text-anchor="start" dominant-baseline="alphabetic" stroke-opacity="1" stroke-linejoin="bevel" stroke-miterlimit="10" stroke-width="3">n+1</text><text fill="rgb(68,68,68)" stroke="none" font-family="geogebra-sans-serif, sans-serif" font-size="14px" font-style="normal" font-weight="normal" text-decoration="normal" x="587" y="254" text-anchor="start" dominant-baseline="alphabetic" fill-opacity="1">n+1</text><text fill="rgb(68,68,68)" stroke="none" font-family="geogebra-sans-serif, sans-serif" font-size="16px" font-style="normal" font-weight="normal" text-decoration="normal" x="611" y="247" text-anchor="start" dominant-baseline="alphabetic" fill-opacity="1">,y</text><text fill="none" stroke="rgb(255,255,255)" font-family="geogebra-sans-serif, sans-serif" font-size="16px" font-style="normal" font-weight="normal" text-decoration="normal" x="611" y="247" text-anchor="start" dominant-baseline="alphabetic" stroke-opacity="1" stroke-linejoin="bevel" stroke-miterlimit="10" stroke-width="3">,y</text><text fill="rgb(68,68,68)" stroke="none" font-family="geogebra-sans-serif, sans-serif" font-size="16px" font-style="normal" font-weight="normal" text-decoration="normal" x="611" y="247" text-anchor="start" dominant-baseline="alphabetic" fill-opacity="1">,y</text><text fill="rgb(68,68,68)" stroke="none" font-family="geogebra-sans-serif, sans-serif" font-size="14px" font-style="normal" font-weight="normal" text-decoration="normal" x="623" y="254" text-anchor="start" dominant-baseline="alphabetic" fill-opacity="1">n+1</text><text fill="none" stroke="rgb(255,255,255)" font-family="geogebra-sans-serif, sans-serif" font-size="14px" font-style="normal" font-weight="normal" text-decoration="normal" x="623" y="254" text-anchor="start" dominant-baseline="alphabetic" stroke-opacity="1" stroke-linejoin="bevel" stroke-miterlimit="10" stroke-width="3">n+1</text><text fill="rgb(68,68,68)" stroke="none" font-family="geogebra-sans-serif, sans-serif" font-size="14px" font-style="normal" font-weight="normal" text-decoration="normal" x="623" y="254" text-anchor="start" dominant-baseline="alphabetic" fill-opacity="1">n+1</text><text fill="rgb(68,68,68)" stroke="none" font-family="geogebra-sans-serif, sans-serif" font-size="16px" font-style="normal" font-weight="normal" text-decoration="normal" x="647" y="247" text-anchor="start" dominant-baseline="alphabetic" fill-opacity="1">)</text><text fill="none" stroke="rgb(255,255,255)" font-family="geogebra-sans-serif, sans-serif" font-size="16px" font-style="normal" font-weight="normal" text-decoration="normal" x="647" y="247" text-anchor="start" dominant-baseline="alphabetic" stroke-opacity="1" stroke-linejoin="bevel" stroke-miterlimit="10" stroke-width="3">)</text><text fill="rgb(68,68,68)" stroke="none" font-family="geogebra-sans-serif, sans-serif" font-size="16px" font-style="normal" font-weight="normal" text-decoration="normal" x="647" y="247" text-anchor="start" dominant-baseline="alphabetic" fill-opacity="1">)</text></g></g></svg>
