<svg version="1.1" xmlns="http://www.w3.org/2000/svg" xmlns:xlink="http://www.w3.org/1999/xlink" width="724" height="722"><defs><clipPath id="lDXxGPoabaCd"><path fill="none" stroke="none" d=" M 0 0 L 724 0 L 724 722 L 0 722 L 0 0 Z"/></clipPath></defs><g transform="scale(1,1)" clip-path="url(#lDXxGPoabaCd)"><g><rect fill="rgb(255,255,255)" stroke="none" x="0" y="0" width="724" height="722" fill-opacity="1"/><path fill="rgb(0,0,0)" stroke="none" paint-order="stroke fill markers" d=" M 234.7158074734778 487.9720630561306 C 234.7158074734778 494.11318531079814 229.7374442515881 499.09154853268785 223.5963219969205 499.09154853268785 C 217.45519974225292 499.09154853268785 212.4768365203632 494.11318531079814 212.4768365203632 487.9720630561306 C 212.4768365203632 481.830940801463 217.45519974225292 476.8525775795733 223.5963219969205 476.8525775795733 C 229.7374442515881 476.8525775795733 234.7158074734778 481.830940801463 234.7158074734778 487.9720630561306 Z" fill-opacity="0.2784313725490196"/><path fill="none" stroke="rgb(0,0,0)" paint-order="fill stroke markers" d=" M 234.7158074734778 487.9720630561306 C 234.7158074734778 494.11318531079814 229.7374442515881 499.09154853268785 223.5963219969205 499.09154853268785 C 217.45519974225292 499.09154853268785 212.4768365203632 494.11318531079814 212.4768365203632 487.9720630561306 C 212.4768365203632 481.830940801463 217.45519974225292 476.8525775795733 223.5963219969205 476.8525775795733 C 229.7374442515881 476.8525775795733 234.7158074734778 481.830940801463 234.7158074734778 487.9720630561306 Z" stroke-opacity="0.6980392156862745" stroke-linecap="round" stroke-linejoin="round" stroke-miterlimit="10" stroke-width="2.5"/><text fill="rgb(0,0,0)" stroke="none" font-family="geogebra-sans-serif, sans-serif" font-size="16px" font-style="normal" font-weight="normal" text-decoration="normal" x="199" y="499" text-anchor="start" dominant-baseline="alphabetic" fill-opacity="1">n</text><text fill="none" stroke="rgb(255,255,255)" font-family="geogebra-sans-serif, sans-serif" font-size="16px" font-style="normal" font-weight="normal" text-decoration="normal" x="199" y="499" text-anchor="start" dominant-baseline="alphabetic" stroke-opacity="1" stroke-linejoin="bevel" stroke-miterlimit="10" stroke-width="3">n</text><text fill="rgb(0,0,0)" stroke="none" font-family="geogebra-sans-serif, sans-serif" font-size="16px" font-style="normal" font-weight="normal" text-decoration="normal" x="199" y="499" text-anchor="start" dominant-baseline="alphabetic" fill-opacity="1">n</text><path fill="rgb(0,0,0)" stroke="none" paint-order="stroke fill markers" d=" M 228.0441161875434 487.9720630561306 C 228.0441161875434 490.4285119579976 226.05277089878754 492.4198572467535 223.5963219969205 492.4198572467535 C 221.13987309505347 492.4198572467535 219.14852780629758 490.4285119579976 219.14852780629758 487.9720630561306 C 219.14852780629758 485.5156141542636 221.13987309505347 483.5242688655077 223.5963219969205 483.5242688655077 C 226.05277089878754 483.5242688655077 228.0441161875434 485.5156141542636 228.0441161875434 487.9720630561306 Z" fill-opacity="1"/><path fill="none" stroke="rgb(0,0,0)" paint-order="fill stroke markers" d=" M 228.0441161875434 487.9720630561306 C 228.0441161875434 490.4285119579976 226.05277089878754 492.4198572467535 223.5963219969205 492.4198572467535 C 221.13987309505347 492.4198572467535 219.14852780629758 490.4285119579976 219.14852780629758 487.9720630561306 C 219.14852780629758 485.5156141542636 221.13987309505347 483.5242688655077 223.5963219969205 483.5242688655077 C 226.05277089878754 483.5242688655077 228.0441161875434 485.5156141542636 228.0441161875434 487.9720630561306 Z" stroke-opacity="0.6980392156862745" stroke-linecap="round" stroke-linejoin="round" stroke-miterlimit="10" stroke-width="2.5"/><path fill="rgb(255,0,0)" stroke="none" paint-order="stroke fill markers" d=" M 323.5963219969205 487.9720630561306 C 323.5963219969205 467.4501002481534 317.282440720148 447.42502720800314 305.5115264258197 430.614419421026 L 223.5963219969205 487.9720630561306 Z" fill-opacity="0.09803921568627451"/><path fill="none" stroke="rgb(255,0,0)" paint-order="fill stroke markers" d=" M 323.5963219969205 487.9720630561306 C 323.5963219969205 467.4501002481534 317.282440720148 447.42502720800314 305.5115264258197 430.614419421026 L 223.5963219969205 487.9720630561306 Z" stroke-opacity="0.6980392156862745" stroke-linecap="round" stroke-linejoin="round" stroke-miterlimit="10" stroke-width="2.5"/><text fill="rgb(255,0,0)" stroke="none" font-family="geogebra-sans-serif, sans-serif" font-size="16px" font-style="normal" font-weight="normal" text-decoration="normal" x="284" y="472" text-anchor="start" dominant-baseline="alphabetic" fill-opacity="1">ω</text><text fill="none" stroke="rgb(255,255,255)" font-family="geogebra-sans-serif, sans-serif" font-size="16px" font-style="normal" font-weight="normal" text-decoration="normal" x="284" y="472" text-anchor="start" dominant-baseline="alphabetic" stroke-opacity="1" stroke-linejoin="bevel" stroke-miterlimit="10" stroke-width="3">ω</text><text fill="rgb(255,0,0)" stroke="none" font-family="geogebra-sans-serif, sans-serif" font-size="16px" font-style="normal" font-weight="normal" text-decoration="normal" x="284" y="472" text-anchor="start" dominant-baseline="alphabetic" fill-opacity="1">ω</text><path fill="rgb(255,0,0)" stroke="none" paint-order="stroke fill markers" d=" M 223.5963219969205 387.9720630561306 C 203.07435918894328 387.9720630561306 183.04928614879304 394.28594433290317 166.2386783618159 406.0568586272314 L 223.5963219969205 487.9720630561306 Z" fill-opacity="0.09803921568627451"/><path fill="none" stroke="rgb(255,0,0)" paint-order="fill stroke markers" d=" M 223.5963219969205 387.9720630561306 C 203.07435918894328 387.9720630561306 183.04928614879304 394.28594433290317 166.2386783618159 406.0568586272314 L 223.5963219969205 487.9720630561306 Z" stroke-opacity="0.6980392156862745" stroke-linecap="round" stroke-linejoin="round" stroke-miterlimit="10" stroke-width="2.5"/><text fill="rgb(255,0,0)" stroke="none" font-family="geogebra-sans-serif, sans-serif" font-size="16px" font-style="normal" font-weight="normal" text-decoration="normal" x="192" y="418" text-anchor="start" dominant-baseline="alphabetic" fill-opacity="1">ω</text><text fill="none" stroke="rgb(255,255,255)" font-family="geogebra-sans-serif, sans-serif" font-size="16px" font-style="normal" font-weight="normal" text-decoration="normal" x="192" y="418" text-anchor="start" dominant-baseline="alphabetic" stroke-opacity="1" stroke-linejoin="bevel" stroke-miterlimit="10" stroke-width="3">ω</text><text fill="rgb(255,0,0)" stroke="none" font-family="geogebra-sans-serif, sans-serif" font-size="16px" font-style="normal" font-weight="normal" text-decoration="normal" x="192" y="418" text-anchor="start" dominant-baseline="alphabetic" fill-opacity="1">ω</text><path fill="rgb(0,100,0)" stroke="none" paint-order="stroke fill markers" fill-rule="evenodd" d=" M 223.5963219969205 487.9720630561306 L 261.24613974398994 461.60937685741084 L 234.88345354527098 423.95955911033707 L 197.23363579820074 450.32224530906115 L 223.5963219969205 487.9720630561306" fill-opacity="0.09803921568627451"/><path fill="none" stroke="rgb(0,100,0)" paint-order="fill stroke markers" d=" M 223.5963219969205 487.9720630561306 L 261.24613974398994 461.60937685741084 L 234.88345354527098 423.95955911033707 L 197.23363579820074 450.32224530906115 L 223.5963219969205 487.9720630561306" stroke-opacity="0.6980392156862745" stroke-linecap="round" stroke-linejoin="round" stroke-miterlimit="10" stroke-width="2.5"/><path fill="rgb(0,100,0)" stroke="none" paint-order="stroke fill markers" fill-rule="evenodd" d=" M 223.5963219969205 487.9720630561306 L 251.8805932443805 487.9720630561306 L 251.8805932443824 459.6877918086687 L 223.5963219969205 459.68779180867057 L 223.5963219969205 487.9720630561306" fill-opacity="0.09803921568627451"/><path fill="none" stroke="rgb(0,100,0)" paint-order="fill stroke markers" d=" M 223.5963219969205 487.9720630561306 L 251.8805932443805 487.9720630561306 L 251.8805932443824 459.6877918086687 L 223.5963219969205 459.68779180867057 L 223.5963219969205 487.9720630561306" stroke-opacity="0.6980392156862745" stroke-linecap="round" stroke-linejoin="round" stroke-miterlimit="10" stroke-width="2.5"/><path fill="rgb(0,0,0)" stroke="none" paint-order="stroke fill markers" d=" M 405.7673071881938 360.41456598211164 L 389.404022580789 366.6839692118512 L 391.1247518898421 369.14142534471813 L 222.87935145148168 486.94812300076933 C 222.31384497416477 487.344094899093 222.1764100432355 488.12352712425246 222.57238194155923 488.6890336015694 C 222.81555836424383 489.03632552491314 223.2033568783006 489.22217023204445 223.5974124370364 489.22217023204445 C 223.84501006949012 489.22217023204445 224.0950779883861 489.14879858713095 224.3132925423593 488.99600311149186 L 392.55869298071974 371.18930545544066 L 394.27942228977287 373.6467615883076 L 405.7673071881938 360.41456598211164 Z" fill-opacity="0.6980392156862745"/><text fill="rgb(0,0,0)" stroke="none" font-family="geogebra-sans-serif, sans-serif" font-size="16px" font-style="normal" font-weight="normal" text-decoration="normal" x="330" y="426" text-anchor="start" dominant-baseline="alphabetic" fill-opacity="1">p</text><text fill="none" stroke="rgb(255,255,255)" font-family="geogebra-sans-serif, sans-serif" font-size="16px" font-style="normal" font-weight="normal" text-decoration="normal" x="330" y="426" text-anchor="start" dominant-baseline="alphabetic" stroke-opacity="1" stroke-linejoin="bevel" stroke-miterlimit="10" stroke-width="3">p</text><text fill="rgb(0,0,0)" stroke="none" font-family="geogebra-sans-serif, sans-serif" font-size="16px" font-style="normal" font-weight="normal" text-decoration="normal" x="330" y="426" text-anchor="start" dominant-baseline="alphabetic" fill-opacity="1">p</text><path fill="rgb(0,0,0)" stroke="none" paint-order="stroke fill markers" d=" M 96.03882492290153 305.8010778648573 L 102.30822815264109 322.1643624722621 L 104.76568428550806 320.443633163209 L 104.76568428550807 320.443633163209 L 222.57238194155926 488.6890336015694 C 222.81555836424388 489.0363255249131 223.20335687830067 489.22217023204445 223.59741243703647 489.22217023204445 C 223.84501006949014 489.22217023204445 224.0950779883861 489.14879858713095 224.3132925423593 488.99600311149186 C 224.87879901967622 488.60003121316817 225.01623395060545 487.82059898800867 224.62026205228173 487.2550925106918 L 106.81356439623055 319.00969207233135 L 106.81356439623056 319.00969207233135 L 109.27102052909753 317.2889627632782 L 96.03882492290153 305.8010778648573 Z" fill-opacity="0.6980392156862745"/><text fill="rgb(0,0,0)" stroke="none" font-family="geogebra-sans-serif, sans-serif" font-size="16px" font-style="normal" font-weight="normal" text-decoration="normal" x="123" y="336" text-anchor="start" dominant-baseline="alphabetic" fill-opacity="1">q</text><text fill="none" stroke="rgb(255,255,255)" font-family="geogebra-sans-serif, sans-serif" font-size="16px" font-style="normal" font-weight="normal" text-decoration="normal" x="123" y="336" text-anchor="start" dominant-baseline="alphabetic" stroke-opacity="1" stroke-linejoin="bevel" stroke-miterlimit="10" stroke-width="3">q</text><text fill="rgb(0,0,0)" stroke="none" font-family="geogebra-sans-serif, sans-serif" font-size="16px" font-style="normal" font-weight="normal" text-decoration="normal" x="123" y="336" text-anchor="start" dominant-baseline="alphabetic" fill-opacity="1">q</text><path fill="rgb(0,0,0)" stroke="none" paint-order="stroke fill markers" d=" M 428.98603152806646 483.7220630561306 L 428.98603152806646 486.7220630561306 L 223.5963219969205 486.7220630561306 C 222.905966059632 486.7220630561306 222.3463219969205 487.2817071188421 222.3463219969205 487.9720630561306 C 222.3463219969205 488.66241899341907 222.905966059632 489.2220630561306 223.5963219969205 489.2220630561306 L 428.98603152806646 489.2220630561306 L 428.98603152806646 492.2220630561306 L 445.98603152806646 487.9720630561306 L 428.98603152806646 483.7220630561306 Z" fill-opacity="0.6980392156862745"/><text fill="rgb(0,0,0)" stroke="none" font-family="geogebra-sans-serif, sans-serif" font-size="16px" font-style="normal" font-weight="normal" text-decoration="normal" x="334" y="483" text-anchor="start" dominant-baseline="alphabetic" fill-opacity="1">u</text><text fill="none" stroke="rgb(255,255,255)" font-family="geogebra-sans-serif, sans-serif" font-size="16px" font-style="normal" font-weight="normal" text-decoration="normal" x="334" y="483" text-anchor="start" dominant-baseline="alphabetic" stroke-opacity="1" stroke-linejoin="bevel" stroke-miterlimit="10" stroke-width="3">u</text><text fill="rgb(0,0,0)" stroke="none" font-family="geogebra-sans-serif, sans-serif" font-size="16px" font-style="normal" font-weight="normal" text-decoration="normal" x="334" y="483" text-anchor="start" dominant-baseline="alphabetic" fill-opacity="1">u</text><path fill="rgb(0,0,0)" stroke="none" paint-order="stroke fill markers" d=" M 223.5963219969205 265.5823535249846 L 219.3463219969205 282.5823535249846 L 222.3463219969205 282.5823535249846 L 222.3463219969205 487.9720630561306 C 222.3463219969205 488.66241899341907 222.905966059632 489.2220630561306 223.5963219969205 489.2220630561306 C 224.286677934209 489.2220630561306 224.8463219969205 488.66241899341907 224.8463219969205 487.9720630561306 L 224.8463219969205 282.5823535249846 L 227.8463219969205 282.5823535249846 L 223.5963219969205 265.5823535249846 Z" fill-opacity="0.6980392156862745"/><text fill="rgb(0,0,0)" stroke="none" font-family="geogebra-sans-serif, sans-serif" font-size="16px" font-style="normal" font-weight="normal" text-decoration="normal" x="233" y="297" text-anchor="start" dominant-baseline="alphabetic" fill-opacity="1">v</text><text fill="none" stroke="rgb(255,255,255)" font-family="geogebra-sans-serif, sans-serif" font-size="16px" font-style="normal" font-weight="normal" text-decoration="normal" x="233" y="297" text-anchor="start" dominant-baseline="alphabetic" stroke-opacity="1" stroke-linejoin="bevel" stroke-miterlimit="10" stroke-width="3">v</text><text fill="rgb(0,0,0)" stroke="none" font-family="geogebra-sans-serif, sans-serif" font-size="16px" font-style="normal" font-weight="normal" text-decoration="normal" x="233" y="297" text-anchor="start" dominant-baseline="alphabetic" fill-opacity="1">v</text></g></g></svg>