<svg version="1.1" xmlns="http://www.w3.org/2000/svg" xmlns:xlink="http://www.w3.org/1999/xlink" width="732" height="722"><defs><clipPath id="BGUBGOFRlCSp"><path fill="none" stroke="none" d=" M 0 0 L 732 0 L 732 722 L 0 722 L 0 0 Z"/></clipPath></defs><g transform="scale(1,1)" clip-path="url(#BGUBGOFRlCSp)"><g><rect fill="rgb(255,255,255)" stroke="none" x="0" y="0" width="732" height="722" fill-opacity="1"/><path fill="none" stroke="rgb(0,0,0)" paint-order="fill stroke markers" d=" M 578.3704864517113 353.56456734921 C 578.3704864517113 477.76270026159693 477.68800669022266 578.4451800230858 353.48987377783595 578.4451800230858 C 229.29174086544924 578.4451800230858 128.6092611039607 477.76270026159693 128.6092611039607 353.56456734921 C 128.6092611039607 229.366434436823 229.29174086544924 128.68395467533426 353.48987377783595 128.68395467533426 C 477.68800669022266 128.68395467533426 578.3704864517113 229.366434436823 578.3704864517113 353.56456734921 Z" stroke-opacity="0.6980392156862745" stroke-linecap="round" stroke-linejoin="round" stroke-miterlimit="10" stroke-width="2.5"/><path fill="none" stroke="rgb(0,0,0)" paint-order="fill stroke markers" d=" M 192.3121073157428 196.7429567374433 L 353.48987377783595 353.56456734921" stroke-opacity="0.6980392156862745" stroke-linecap="round" stroke-linejoin="round" stroke-miterlimit="10" stroke-width="2.5"/><path fill="none" stroke="rgb(0,0,0)" paint-order="fill stroke markers" d=" M 353.48987377783595 353.56456734921 L 144.39439296214752 436.3315285054202" stroke-opacity="0.6980392156862745" stroke-linecap="round" stroke-linejoin="round" stroke-miterlimit="10" stroke-width="2.5"/><path fill="none" stroke="rgb(0,0,0)" paint-order="fill stroke markers" d=" M 353.48987377783595 353.56456734921 L 575.6538221445048 388.4138141518248" stroke-opacity="0.6980392156862745" stroke-linecap="round" stroke-linejoin="round" stroke-miterlimit="10" stroke-width="2.5"/><path fill="rgb(77,77,255)" stroke="none" paint-order="stroke fill markers" d=" M 197.3121073157428 196.7429567374433 C 197.3121073157428 199.50438048659728 195.07353106489677 201.7429567374433 192.3121073157428 201.7429567374433 C 189.55068356658882 201.7429567374433 187.3121073157428 199.50438048659728 187.3121073157428 196.7429567374433 C 187.3121073157428 193.98153298828933 189.55068356658882 191.7429567374433 192.3121073157428 191.7429567374433 C 195.07353106489677 191.7429567374433 197.3121073157428 193.98153298828933 197.3121073157428 196.7429567374433 Z" fill-opacity="1"/><path fill="none" stroke="rgb(0,0,0)" paint-order="fill stroke markers" d=" M 197.3121073157428 196.7429567374433 C 197.3121073157428 199.50438048659728 195.07353106489677 201.7429567374433 192.3121073157428 201.7429567374433 C 189.55068356658882 201.7429567374433 187.3121073157428 199.50438048659728 187.3121073157428 196.7429567374433 C 187.3121073157428 193.98153298828933 189.55068356658882 191.7429567374433 192.3121073157428 191.7429567374433 C 195.07353106489677 191.7429567374433 197.3121073157428 193.98153298828933 197.3121073157428 196.7429567374433 Z" stroke-opacity="1" stroke-linecap="round" stroke-linejoin="round" stroke-miterlimit="10"/><text fill="rgb(77,77,255)" stroke="none" font-family="geogebra-sans-serif, sans-serif" font-size="16px" font-style="normal" font-weight="normal" text-decoration="normal" x="172" y="194" text-anchor="start" dominant-baseline="alphabetic" fill-opacity="1">A</text><text fill="none" stroke="rgb(255,255,255)" font-family="geogebra-sans-serif, sans-serif" font-size="16px" font-style="normal" font-weight="normal" text-decoration="normal" x="172" y="194" text-anchor="start" dominant-baseline="alphabetic" stroke-opacity="1" stroke-linejoin="bevel" stroke-miterlimit="10" stroke-width="3">A</text><text fill="rgb(77,77,255)" stroke="none" font-family="geogebra-sans-serif, sans-serif" font-size="16px" font-style="normal" font-weight="normal" text-decoration="normal" x="172" y="194" text-anchor="start" dominant-baseline="alphabetic" fill-opacity="1">A</text><path fill="rgb(77,77,255)" stroke="none" paint-order="stroke fill markers" d=" M 149.39439296214752 436.3315285054202 C 149.39439296214752 439.09295225457413 147.1558167113015 441.3315285054202 144.39439296214752 441.3315285054202 C 141.63296921299354 441.3315285054202 139.39439296214752 439.09295225457413 139.39439296214752 436.3315285054202 C 139.39439296214752 433.57010475626623 141.63296921299354 431.3315285054202 144.39439296214752 431.3315285054202 C 147.1558167113015 431.3315285054202 149.39439296214752 433.57010475626623 149.39439296214752 436.3315285054202 Z" fill-opacity="1"/><path fill="none" stroke="rgb(0,0,0)" paint-order="fill stroke markers" d=" M 149.39439296214752 436.3315285054202 C 149.39439296214752 439.09295225457413 147.1558167113015 441.3315285054202 144.39439296214752 441.3315285054202 C 141.63296921299354 441.3315285054202 139.39439296214752 439.09295225457413 139.39439296214752 436.3315285054202 C 139.39439296214752 433.57010475626623 141.63296921299354 431.3315285054202 144.39439296214752 431.3315285054202 C 147.1558167113015 431.3315285054202 149.39439296214752 433.57010475626623 149.39439296214752 436.3315285054202 Z" stroke-opacity="1" stroke-linecap="round" stroke-linejoin="round" stroke-miterlimit="10"/><text fill="rgb(77,77,255)" stroke="none" font-family="geogebra-sans-serif, sans-serif" font-size="16px" font-style="normal" font-weight="normal" text-decoration="normal" x="120" y="446" text-anchor="start" dominant-baseline="alphabetic" fill-opacity="1">B</text><text fill="none" stroke="rgb(255,255,255)" font-family="geogebra-sans-serif, sans-serif" font-size="16px" font-style="normal" font-weight="normal" text-decoration="normal" x="120" y="446" text-anchor="start" dominant-baseline="alphabetic" stroke-opacity="1" stroke-linejoin="bevel" stroke-miterlimit="10" stroke-width="3">B</text><text fill="rgb(77,77,255)" stroke="none" font-family="geogebra-sans-serif, sans-serif" font-size="16px" font-style="normal" font-weight="normal" text-decoration="normal" x="120" y="446" text-anchor="start" dominant-baseline="alphabetic" fill-opacity="1">B</text><path fill="rgb(77,77,255)" stroke="none" paint-order="stroke fill markers" d=" M 580.6538221445048 388.4138141518248 C 580.6538221445048 391.17523790097874 578.4152458936588 393.4138141518248 575.6538221445048 393.4138141518248 C 572.8923983953508 393.4138141518248 570.6538221445048 391.17523790097874 570.6538221445048 388.4138141518248 C 570.6538221445048 385.65239040267085 572.8923983953508 383.4138141518248 575.6538221445048 383.4138141518248 C 578.4152458936588 383.4138141518248 580.6538221445048 385.65239040267085 580.6538221445048 388.4138141518248 Z" fill-opacity="1"/><path fill="none" stroke="rgb(0,0,0)" paint-order="fill stroke markers" d=" M 580.6538221445048 388.4138141518248 C 580.6538221445048 391.17523790097874 578.4152458936588 393.4138141518248 575.6538221445048 393.4138141518248 C 572.8923983953508 393.4138141518248 570.6538221445048 391.17523790097874 570.6538221445048 388.4138141518248 C 570.6538221445048 385.65239040267085 572.8923983953508 383.4138141518248 575.6538221445048 383.4138141518248 C 578.4152458936588 383.4138141518248 580.6538221445048 385.65239040267085 580.6538221445048 388.4138141518248 Z" stroke-opacity="1" stroke-linecap="round" stroke-linejoin="round" stroke-miterlimit="10"/><text fill="rgb(77,77,255)" stroke="none" font-family="geogebra-sans-serif, sans-serif" font-size="16px" font-style="normal" font-weight="normal" text-decoration="normal" x="580" y="378" text-anchor="start" dominant-baseline="alphabetic" fill-opacity="1">C</text><text fill="none" stroke="rgb(255,255,255)" font-family="geogebra-sans-serif, sans-serif" font-size="16px" font-style="normal" font-weight="normal" text-decoration="normal" x="580" y="378" text-anchor="start" dominant-baseline="alphabetic" stroke-opacity="1" stroke-linejoin="bevel" stroke-miterlimit="10" stroke-width="3">C</text><text fill="rgb(77,77,255)" stroke="none" font-family="geogebra-sans-serif, sans-serif" font-size="16px" font-style="normal" font-weight="normal" text-decoration="normal" x="580" y="378" text-anchor="start" dominant-baseline="alphabetic" fill-opacity="1">C</text><path fill="rgb(68,68,68)" stroke="none" paint-order="stroke fill markers" d=" M 357.48987377783595 353.56456734921 C 357.48987377783595 355.77370634853315 355.6990127771591 357.56456734921 353.48987377783595 357.56456734921 C 351.2807347785128 357.56456734921 349.48987377783595 355.77370634853315 349.48987377783595 353.56456734921 C 349.48987377783595 351.35542834988684 351.2807347785128 349.56456734921 353.48987377783595 349.56456734921 C 355.6990127771591 349.56456734921 357.48987377783595 351.35542834988684 357.48987377783595 353.56456734921 Z" fill-opacity="1"/><path fill="none" stroke="rgb(0,0,0)" paint-order="fill stroke markers" d=" M 357.48987377783595 353.56456734921 C 357.48987377783595 355.77370634853315 355.6990127771591 357.56456734921 353.48987377783595 357.56456734921 C 351.2807347785128 357.56456734921 349.48987377783595 355.77370634853315 349.48987377783595 353.56456734921 C 349.48987377783595 351.35542834988684 351.2807347785128 349.56456734921 353.48987377783595 349.56456734921 C 355.6990127771591 349.56456734921 357.48987377783595 351.35542834988684 357.48987377783595 353.56456734921 Z" stroke-opacity="1" stroke-linecap="round" stroke-linejoin="round" stroke-miterlimit="10"/><text fill="rgb(68,68,68)" stroke="none" font-family="geogebra-sans-serif, sans-serif" font-size="16px" font-style="normal" font-weight="normal" text-decoration="normal" x="357" y="346" text-anchor="start" dominant-baseline="alphabetic" fill-opacity="1">O</text><text fill="none" stroke="rgb(255,255,255)" font-family="geogebra-sans-serif, sans-serif" font-size="16px" font-style="normal" font-weight="normal" text-decoration="normal" x="357" y="346" text-anchor="start" dominant-baseline="alphabetic" stroke-opacity="1" stroke-linejoin="bevel" stroke-miterlimit="10" stroke-width="3">O</text><text fill="rgb(68,68,68)" stroke="none" font-family="geogebra-sans-serif, sans-serif" font-size="16px" font-style="normal" font-weight="normal" text-decoration="normal" x="357" y="346" text-anchor="start" dominant-baseline="alphabetic" fill-opacity="1">O</text></g></g></svg>