<svg version="1.1" xmlns="http://www.w3.org/2000/svg" xmlns:xlink="http://www.w3.org/1999/xlink" width="1124" height="722"><defs><clipPath id="sCkiMOuZgWGL"><path fill="none" stroke="none" d=" M 0 0 L 1124 0 L 1124 722 L 0 722 L 0 0 Z"/></clipPath></defs><g transform="scale(1,1)" clip-path="url(#sCkiMOuZgWGL)"><g><rect fill="rgb(255,255,255)" stroke="none" x="0" y="0" width="1124" height="722" fill-opacity="1"/><path fill="none" stroke="rgb(37,37,37)" paint-order="fill stroke markers" d=" M 383.5 2.5 L 383.5 722.5" stroke-opacity="1" stroke-miterlimit="10"/><path fill="none" stroke="rgb(37,37,37)" paint-order="fill stroke markers" d=" M 383.5 1.5 L 379.5 5.5" stroke-opacity="1" stroke-miterlimit="10"/><path fill="none" stroke="rgb(37,37,37)" paint-order="fill stroke markers" d=" M 383.5 1.5 L 387.5 5.5" stroke-opacity="1" stroke-miterlimit="10"/><path fill="none" stroke="rgb(37,37,37)" paint-order="fill stroke markers" d=" M 0.5 432.5 L 1122.5 432.5" stroke-opacity="1" stroke-miterlimit="10"/><path fill="none" stroke="rgb(37,37,37)" paint-order="fill stroke markers" d=" M 1123.5 432.5 L 1119.5 428.5" stroke-opacity="1" stroke-miterlimit="10"/><path fill="none" stroke="rgb(37,37,37)" paint-order="fill stroke markers" d=" M 1123.5 432.5 L 1119.5 436.5" stroke-opacity="1" stroke-miterlimit="10"/><path fill="none" stroke="rgb(255,0,0)" paint-order="fill stroke markers" d=" M 485.8535696220176 330.65018322850835 C 485.8535696220176 387.15220088801664 440.049634280254 432.9561362297801 383.54761662074566 432.9561362297801 C 327.04559896123726 432.9561362297801 281.2416636194737 387.15220088801664 281.2416636194737 330.65018322850835 C 281.2416636194737 274.14816556900007 327.04559896123726 228.34423022723658 383.54761662074566 228.34423022723658 C 440.049634280254 228.34423022723658 485.8535696220176 274.14816556900007 485.8535696220176 330.65018322850835 Z" stroke-opacity="0.6980392156862745" stroke-linecap="round" stroke-linejoin="round" stroke-miterlimit="10" stroke-width="2.5"/><path fill="none" stroke="rgb(0,0,255)" paint-order="fill stroke markers" d=" M 134.2197317343635 727 L 500.21973173436413 -5" stroke-opacity="0.6980392156862745" stroke-linecap="round" stroke-linejoin="round" stroke-miterlimit="10" stroke-width="2.5"/><path fill="none" stroke="rgb(0,0,255)" paint-order="fill stroke markers" d=" M 150.20338639350862 -5 L 882.2033863935098 727" stroke-opacity="0.6980392156862745" stroke-linecap="round" stroke-linejoin="round" stroke-miterlimit="10" stroke-width="2.5"/><path fill="none" stroke="rgb(0,0,0)" paint-order="fill stroke markers" d=" M -5 494.26803976918063 L 1129 116.26803976918126" stroke-opacity="0.6980392156862745" stroke-linecap="round" stroke-linejoin="round" stroke-miterlimit="10" stroke-width="2.5"/><path fill="rgb(110,109,115)" stroke="none" paint-order="stroke fill markers" d=" M 387.5476166207456 330.65018322850835 C 387.5476166207456 332.8593222278315 385.75675562006876 334.65018322850835 383.5476166207456 334.65018322850835 C 381.33847762142244 334.65018322850835 379.5476166207456 332.8593222278315 379.5476166207456 330.65018322850835 C 379.5476166207456 328.4410442291852 381.33847762142244 326.65018322850835 383.5476166207456 326.65018322850835 C 385.75675562006876 326.65018322850835 387.5476166207456 328.4410442291852 387.5476166207456 330.65018322850835 Z" fill-opacity="1"/><path fill="none" stroke="rgb(0,0,0)" paint-order="fill stroke markers" d=" M 387.5476166207456 330.65018322850835 C 387.5476166207456 332.8593222278315 385.75675562006876 334.65018322850835 383.5476166207456 334.65018322850835 C 381.33847762142244 334.65018322850835 379.5476166207456 332.8593222278315 379.5476166207456 330.65018322850835 C 379.5476166207456 328.4410442291852 381.33847762142244 326.65018322850835 383.5476166207456 326.65018322850835 C 385.75675562006876 326.65018322850835 387.5476166207456 328.4410442291852 387.5476166207456 330.65018322850835 Z" stroke-opacity="1" stroke-linecap="round" stroke-linejoin="round" stroke-miterlimit="10"/><text fill="rgb(110,109,115)" stroke="none" font-family="geogebra-sans-serif, sans-serif" font-size="16px" font-style="normal" font-weight="normal" text-decoration="normal" x="388" y="323" text-anchor="start" dominant-baseline="alphabetic" fill-opacity="1">A</text><path fill="rgb(110,109,115)" stroke="none" paint-order="stroke fill markers" d=" M 592.1595226232895 432.95613622978016 C 592.1595226232895 435.1652752291033 590.3686616226126 436.95613622978016 588.1595226232895 436.95613622978016 C 585.9503836239663 436.95613622978016 584.1595226232895 435.1652752291033 584.1595226232895 432.95613622978016 C 584.1595226232895 430.746997230457 585.9503836239663 428.95613622978016 588.1595226232895 428.95613622978016 C 590.3686616226126 428.95613622978016 592.1595226232895 430.746997230457 592.1595226232895 432.95613622978016 Z" fill-opacity="1"/><path fill="none" stroke="rgb(0,0,0)" paint-order="fill stroke markers" d=" M 592.1595226232895 432.95613622978016 C 592.1595226232895 435.1652752291033 590.3686616226126 436.95613622978016 588.1595226232895 436.95613622978016 C 585.9503836239663 436.95613622978016 584.1595226232895 435.1652752291033 584.1595226232895 432.95613622978016 C 584.1595226232895 430.746997230457 585.9503836239663 428.95613622978016 588.1595226232895 428.95613622978016 C 590.3686616226126 428.95613622978016 592.1595226232895 430.746997230457 592.1595226232895 432.95613622978016 Z" stroke-opacity="1" stroke-linecap="round" stroke-linejoin="round" stroke-miterlimit="10"/><text fill="rgb(110,109,115)" stroke="none" font-family="geogebra-sans-serif, sans-serif" font-size="16px" font-style="normal" font-weight="normal" text-decoration="normal" x="592" y="425" text-anchor="start" dominant-baseline="alphabetic" fill-opacity="1">a</text><path fill="rgb(110,109,115)" stroke="none" paint-order="stroke fill markers" d=" M 285.2416636194737 432.95613622978016 C 285.2416636194737 435.1652752291033 283.45080261879684 436.95613622978016 281.2416636194737 436.95613622978016 C 279.0325246201505 436.95613622978016 277.2416636194737 435.1652752291033 277.2416636194737 432.95613622978016 C 277.2416636194737 430.746997230457 279.0325246201505 428.95613622978016 281.2416636194737 428.95613622978016 C 283.45080261879684 428.95613622978016 285.2416636194737 430.746997230457 285.2416636194737 432.95613622978016 Z" fill-opacity="1"/><path fill="none" stroke="rgb(0,0,0)" paint-order="fill stroke markers" d=" M 285.2416636194737 432.95613622978016 C 285.2416636194737 435.1652752291033 283.45080261879684 436.95613622978016 281.2416636194737 436.95613622978016 C 279.0325246201505 436.95613622978016 277.2416636194737 435.1652752291033 277.2416636194737 432.95613622978016 C 277.2416636194737 430.746997230457 279.0325246201505 428.95613622978016 281.2416636194737 428.95613622978016 C 283.45080261879684 428.95613622978016 285.2416636194737 430.746997230457 285.2416636194737 432.95613622978016 Z" stroke-opacity="1" stroke-linecap="round" stroke-linejoin="round" stroke-miterlimit="10"/><text fill="rgb(110,109,115)" stroke="none" font-family="geogebra-sans-serif, sans-serif" font-size="16px" font-style="normal" font-weight="normal" text-decoration="normal" x="285" y="425" text-anchor="start" dominant-baseline="alphabetic" fill-opacity="1">b</text><path fill="rgb(110,109,115)" stroke="none" paint-order="stroke fill markers" d=" M 305.702854219728 392.03375502927145 C 305.702854219728 394.2428940285946 303.91199321905117 396.03375502927145 301.702854219728 396.03375502927145 C 299.49371522040485 396.03375502927145 297.702854219728 394.2428940285946 297.702854219728 392.03375502927145 C 297.702854219728 389.8246160299483 299.49371522040485 388.03375502927145 301.702854219728 388.03375502927145 C 303.91199321905117 388.03375502927145 305.702854219728 389.8246160299483 305.702854219728 392.03375502927145 Z" fill-opacity="1"/><path fill="none" stroke="rgb(0,0,0)" paint-order="fill stroke markers" d=" M 305.702854219728 392.03375502927145 C 305.702854219728 394.2428940285946 303.91199321905117 396.03375502927145 301.702854219728 396.03375502927145 C 299.49371522040485 396.03375502927145 297.702854219728 394.2428940285946 297.702854219728 392.03375502927145 C 297.702854219728 389.8246160299483 299.49371522040485 388.03375502927145 301.702854219728 388.03375502927145 C 303.91199321905117 388.03375502927145 305.702854219728 389.8246160299483 305.702854219728 392.03375502927145 Z" stroke-opacity="1" stroke-linecap="round" stroke-linejoin="round" stroke-miterlimit="10"/><text fill="rgb(110,109,115)" stroke="none" font-family="geogebra-sans-serif, sans-serif" font-size="16px" font-style="normal" font-weight="normal" text-decoration="normal" x="272" y="385" text-anchor="start" dominant-baseline="alphabetic" fill-opacity="1">I</text><text fill="rgb(110,109,115)" stroke="none" font-family="geogebra-sans-serif, sans-serif" font-size="14px" font-style="normal" font-weight="normal" text-decoration="normal" x="276" y="392" text-anchor="start" dominant-baseline="alphabetic" fill-opacity="1">2</text><path fill="rgb(110,109,115)" stroke="none" paint-order="stroke fill markers" d=" M 489.8535696220175 330.65018322850835 C 489.8535696220175 332.8593222278315 488.0627086213407 334.65018322850835 485.8535696220175 334.65018322850835 C 483.64443062269436 334.65018322850835 481.8535696220175 332.8593222278315 481.8535696220175 330.65018322850835 C 481.8535696220175 328.4410442291852 483.64443062269436 326.65018322850835 485.8535696220175 326.65018322850835 C 488.0627086213407 326.65018322850835 489.8535696220175 328.4410442291852 489.8535696220175 330.65018322850835 Z" fill-opacity="1"/><path fill="none" stroke="rgb(0,0,0)" paint-order="fill stroke markers" d=" M 489.8535696220175 330.65018322850835 C 489.8535696220175 332.8593222278315 488.0627086213407 334.65018322850835 485.8535696220175 334.65018322850835 C 483.64443062269436 334.65018322850835 481.8535696220175 332.8593222278315 481.8535696220175 330.65018322850835 C 481.8535696220175 328.4410442291852 483.64443062269436 326.65018322850835 485.8535696220175 326.65018322850835 C 488.0627086213407 326.65018322850835 489.8535696220175 328.4410442291852 489.8535696220175 330.65018322850835 Z" stroke-opacity="1" stroke-linecap="round" stroke-linejoin="round" stroke-miterlimit="10"/><text fill="rgb(110,109,115)" stroke="none" font-family="geogebra-sans-serif, sans-serif" font-size="16px" font-style="normal" font-weight="normal" text-decoration="normal" x="494" y="313" text-anchor="start" dominant-baseline="alphabetic" fill-opacity="1">I</text><text fill="rgb(110,109,115)" stroke="none" font-family="geogebra-sans-serif, sans-serif" font-size="14px" font-style="normal" font-weight="normal" text-decoration="normal" x="498" y="320" text-anchor="start" dominant-baseline="alphabetic" fill-opacity="1">1</text><path fill="rgb(110,109,115)" stroke="none" paint-order="stroke fill markers" d=" M 182.93571061820165 432.95613622978016 C 182.93571061820165 435.1652752291033 181.1448496175248 436.95613622978016 178.93571061820165 436.95613622978016 C 176.72657161887847 436.95613622978016 174.93571061820165 435.1652752291033 174.93571061820165 432.95613622978016 C 174.93571061820165 430.746997230457 176.72657161887847 428.95613622978016 178.93571061820165 428.95613622978016 C 181.1448496175248 428.95613622978016 182.93571061820165 430.746997230457 182.93571061820165 432.95613622978016 Z" fill-opacity="1"/><path fill="none" stroke="rgb(0,0,0)" paint-order="fill stroke markers" d=" M 182.93571061820165 432.95613622978016 C 182.93571061820165 435.1652752291033 181.1448496175248 436.95613622978016 178.93571061820165 436.95613622978016 C 176.72657161887847 436.95613622978016 174.93571061820165 435.1652752291033 174.93571061820165 432.95613622978016 C 174.93571061820165 430.746997230457 176.72657161887847 428.95613622978016 178.93571061820165 428.95613622978016 C 181.1448496175248 428.95613622978016 182.93571061820165 430.746997230457 182.93571061820165 432.95613622978016 Z" stroke-opacity="1" stroke-linecap="round" stroke-linejoin="round" stroke-miterlimit="10"/><text fill="rgb(110,109,115)" stroke="none" font-family="geogebra-sans-serif, sans-serif" font-size="16px" font-style="normal" font-weight="normal" text-decoration="normal" x="183" y="425" text-anchor="start" dominant-baseline="alphabetic" fill-opacity="1">a'</text><path fill="rgb(110,109,115)" stroke="none" paint-order="stroke fill markers" d=" M 387.5476166207456 364.75216756226564 C 387.5476166207456 366.9613065615888 385.75675562006876 368.75216756226564 383.5476166207456 368.75216756226564 C 381.33847762142244 368.75216756226564 379.5476166207456 366.9613065615888 379.5476166207456 364.75216756226564 C 379.5476166207456 362.5430285629425 381.33847762142244 360.75216756226564 383.5476166207456 360.75216756226564 C 385.75675562006876 360.75216756226564 387.5476166207456 362.5430285629425 387.5476166207456 364.75216756226564 Z" fill-opacity="1"/><path fill="none" stroke="rgb(0,0,0)" paint-order="fill stroke markers" d=" M 387.5476166207456 364.75216756226564 C 387.5476166207456 366.9613065615888 385.75675562006876 368.75216756226564 383.5476166207456 368.75216756226564 C 381.33847762142244 368.75216756226564 379.5476166207456 366.9613065615888 379.5476166207456 364.75216756226564 C 379.5476166207456 362.5430285629425 381.33847762142244 360.75216756226564 383.5476166207456 360.75216756226564 C 385.75675562006876 360.75216756226564 387.5476166207456 362.5430285629425 387.5476166207456 364.75216756226564 Z" stroke-opacity="1" stroke-linecap="round" stroke-linejoin="round" stroke-miterlimit="10"/><text fill="rgb(110,109,115)" stroke="none" font-family="geogebra-sans-serif, sans-serif" font-size="16px" font-style="normal" font-weight="normal" text-decoration="normal" x="388" y="357" text-anchor="start" dominant-baseline="alphabetic" fill-opacity="1">b'</text></g></g></svg>