<svg version="1.1" xmlns="http://www.w3.org/2000/svg" xmlns:xlink="http://www.w3.org/1999/xlink" width="732" height="722"><defs><clipPath id="MlUwopqHUiTm"><path fill="none" stroke="none" d=" M 0 0 L 732 0 L 732 722 L 0 722 L 0 0 Z"/></clipPath></defs><g transform="scale(1,1)" clip-path="url(#MlUwopqHUiTm)"><g><rect fill="rgb(255,255,255)" stroke="none" x="0" y="0" width="732" height="722" fill-opacity="1"/><path fill="none" stroke="rgb(37,37,37)" paint-order="fill stroke markers" d=" M 211.5 2.5 L 211.5 722.5" stroke-opacity="1" stroke-miterlimit="10"/><path fill="none" stroke="rgb(37,37,37)" paint-order="fill stroke markers" d=" M 211.5 1.5 L 207.5 5.5" stroke-opacity="1" stroke-miterlimit="10"/><path fill="none" stroke="rgb(37,37,37)" paint-order="fill stroke markers" d=" M 211.5 1.5 L 215.5 5.5" stroke-opacity="1" stroke-miterlimit="10"/><path fill="none" stroke="rgb(37,37,37)" paint-order="fill stroke markers" d=" M 0.5 562.5 L 730.5 562.5" stroke-opacity="1" stroke-miterlimit="10"/><path fill="none" stroke="rgb(37,37,37)" paint-order="fill stroke markers" d=" M 731.5 562.5 L 727.5 558.5" stroke-opacity="1" stroke-miterlimit="10"/><path fill="none" stroke="rgb(37,37,37)" paint-order="fill stroke markers" d=" M 731.5 562.5 L 727.5 566.5" stroke-opacity="1" stroke-miterlimit="10"/><path fill="none" stroke="rgb(0,0,0)" paint-order="fill stroke markers" d=" M 385.5623422659796 388.53100907550146 C 385.5623422659796 484.75030679895934 307.5611898449471 562.7514592199915 211.34189212148883 562.7514592199915 C 115.12259439803054 562.7514592199915 37.12144197699806 484.75030679895934 37.12144197699806 388.53100907550146 C 37.12144197699806 292.3117113520436 115.12259439803054 214.31055893101143 211.34189212148883 214.31055893101143 C 307.5611898449471 214.31055893101143 385.5623422659796 292.3117113520436 385.5623422659796 388.53100907550146 Z" stroke-opacity="0.6980392156862745" stroke-linecap="round" stroke-linejoin="round" stroke-miterlimit="10" stroke-width="2.5"/><path fill="rgb(0,100,0)" stroke="none" paint-order="stroke fill markers" d=" M 249.79235995902158 399.5565033081814 C 253.25390565669068 387.48465884411496 250.84510597996731 374.4879388188597 243.28731252338054 364.4584081494196 C 235.72951906679376 354.4288774799796 223.90022510726627 348.53100907550163 211.34189212148883 348.53100907550163 L 211.34189212148883 388.53100907550146 Z" fill-opacity="0.09803921568627451"/><path fill="none" stroke="rgb(0,100,0)" paint-order="fill stroke markers" d=" M 249.79235995902158 399.5565033081814 C 253.25390565669068 387.48465884411496 250.84510597996731 374.4879388188597 243.28731252338054 364.4584081494196 C 235.72951906679376 354.4288774799796 223.90022510726627 348.53100907550163 211.34189212148883 348.53100907550163 L 211.34189212148883 388.53100907550146 Z" stroke-opacity="0.6980392156862745" stroke-linecap="round" stroke-linejoin="round" stroke-miterlimit="10" stroke-width="2.5"/><text fill="rgb(0,100,0)" stroke="none" font-family="geogebra-sans-serif, sans-serif" font-size="16px" font-style="normal" font-weight="normal" text-decoration="normal" x="227" y="379" text-anchor="start" dominant-baseline="alphabetic" fill-opacity="1">θ</text><path fill="rgb(0,100,0)" stroke="none" paint-order="stroke fill markers" d=" M 211.34189212148883 274.31055893101114 C 224.37071946471627 274.31055893101114 237.04550934003515 270.06963356305727 247.4507935106117 262.2286895338488 L 211.34189212148883 214.31055893101143 Z" fill-opacity="0.09803921568627451"/><path fill="none" stroke="rgb(0,100,0)" paint-order="fill stroke markers" d=" M 211.34189212148883 274.31055893101114 C 224.37071946471627 274.31055893101114 237.04550934003515 270.06963356305727 247.4507935106117 262.2286895338488 L 211.34189212148883 214.31055893101143 Z" stroke-opacity="0.6980392156862745" stroke-linecap="round" stroke-linejoin="round" stroke-miterlimit="10" stroke-width="2.5"/><text fill="rgb(0,100,0)" stroke="none" font-family="geogebra-sans-serif, sans-serif" font-size="16px" font-style="normal" font-weight="normal" text-decoration="normal" x="219" y="252" text-anchor="start" dominant-baseline="alphabetic" fill-opacity="1">α</text><path fill="none" stroke="rgb(0,0,0)" paint-order="fill stroke markers" d=" M 211.34189212148883 214.31055893101143 L 593.9133266334503 722" stroke-opacity="0.6980392156862745" stroke-linecap="round" stroke-linejoin="round" stroke-miterlimit="10" stroke-width="2.5"/><path fill="none" stroke="rgb(0,0,0)" paint-order="fill stroke markers" d=" M 211.34189212148883 388.53100907550146 L 378.8133374945193 436.5526732825761" stroke-opacity="0.6980392156862745" stroke-linecap="round" stroke-linejoin="round" stroke-miterlimit="10" stroke-width="2.5"/><path fill="rgb(110,109,115)" stroke="none" paint-order="stroke fill markers" d=" M 215.34189212148883 388.53100907550146 C 215.34189212148883 390.7401480748246 213.551031120812 392.53100907550146 211.34189212148883 392.53100907550146 C 209.13275312216564 392.53100907550146 207.34189212148883 390.7401480748246 207.34189212148883 388.53100907550146 C 207.34189212148883 386.3218700761783 209.13275312216564 384.53100907550146 211.34189212148883 384.53100907550146 C 213.551031120812 384.53100907550146 215.34189212148883 386.3218700761783 215.34189212148883 388.53100907550146 Z" fill-opacity="1"/><path fill="none" stroke="rgb(0,0,0)" paint-order="fill stroke markers" d=" M 215.34189212148883 388.53100907550146 C 215.34189212148883 390.7401480748246 213.551031120812 392.53100907550146 211.34189212148883 392.53100907550146 C 209.13275312216564 392.53100907550146 207.34189212148883 390.7401480748246 207.34189212148883 388.53100907550146 C 207.34189212148883 386.3218700761783 209.13275312216564 384.53100907550146 211.34189212148883 384.53100907550146 C 213.551031120812 384.53100907550146 215.34189212148883 386.3218700761783 215.34189212148883 388.53100907550146 Z" stroke-opacity="1" stroke-linecap="round" stroke-linejoin="round" stroke-miterlimit="10"/><path fill="rgb(110,109,115)" stroke="none" paint-order="stroke fill markers" d=" M 215.34189212148883 214.31055893101143 C 215.34189212148883 216.5196979303346 213.551031120812 218.31055893101143 211.34189212148883 218.31055893101143 C 209.13275312216564 218.31055893101143 207.34189212148883 216.5196979303346 207.34189212148883 214.31055893101143 C 207.34189212148883 212.10141993168824 209.13275312216564 210.31055893101143 211.34189212148883 210.31055893101143 C 213.551031120812 210.31055893101143 215.34189212148883 212.10141993168824 215.34189212148883 214.31055893101143 Z" fill-opacity="1"/><path fill="none" stroke="rgb(0,0,0)" paint-order="fill stroke markers" d=" M 215.34189212148883 214.31055893101143 C 215.34189212148883 216.5196979303346 213.551031120812 218.31055893101143 211.34189212148883 218.31055893101143 C 209.13275312216564 218.31055893101143 207.34189212148883 216.5196979303346 207.34189212148883 214.31055893101143 C 207.34189212148883 212.10141993168824 209.13275312216564 210.31055893101143 211.34189212148883 210.31055893101143 C 213.551031120812 210.31055893101143 215.34189212148883 212.10141993168824 215.34189212148883 214.31055893101143 Z" stroke-opacity="1" stroke-linecap="round" stroke-linejoin="round" stroke-miterlimit="10"/><text fill="rgb(110,109,115)" stroke="none" font-family="geogebra-sans-serif, sans-serif" font-size="16px" font-style="normal" font-weight="normal" text-decoration="normal" x="215" y="206" text-anchor="start" dominant-baseline="alphabetic" fill-opacity="1">A</text><path fill="rgb(110,109,115)" stroke="none" paint-order="stroke fill markers" d=" M 382.8133374945193 436.5526732825761 C 382.8133374945193 438.76181228189927 381.0224764938425 440.5526732825761 378.8133374945193 440.5526732825761 C 376.60419849519616 440.5526732825761 374.8133374945193 438.76181228189927 374.8133374945193 436.5526732825761 C 374.8133374945193 434.34353428325295 376.60419849519616 432.5526732825761 378.8133374945193 432.5526732825761 C 381.0224764938425 432.5526732825761 382.8133374945193 434.34353428325295 382.8133374945193 436.5526732825761 Z" fill-opacity="1"/><path fill="none" stroke="rgb(0,0,0)" paint-order="fill stroke markers" d=" M 382.8133374945193 436.5526732825761 C 382.8133374945193 438.76181228189927 381.0224764938425 440.5526732825761 378.8133374945193 440.5526732825761 C 376.60419849519616 440.5526732825761 374.8133374945193 438.76181228189927 374.8133374945193 436.5526732825761 C 374.8133374945193 434.34353428325295 376.60419849519616 432.5526732825761 378.8133374945193 432.5526732825761 C 381.0224764938425 432.5526732825761 382.8133374945193 434.34353428325295 382.8133374945193 436.5526732825761 Z" stroke-opacity="1" stroke-linecap="round" stroke-linejoin="round" stroke-miterlimit="10"/><text fill="rgb(110,109,115)" stroke="none" font-family="geogebra-sans-serif, sans-serif" font-size="16px" font-style="normal" font-weight="normal" text-decoration="normal" x="383" y="429" text-anchor="start" dominant-baseline="alphabetic" fill-opacity="1">B</text><path fill="rgb(110,109,115)" stroke="none" paint-order="stroke fill markers" d=" M 477.9109437557146 562.7514592199915 C 477.9109437557146 564.9605982193146 476.12008275503774 566.7514592199915 473.9109437557146 566.7514592199915 C 471.7018047563914 566.7514592199915 469.9109437557146 564.9605982193146 469.9109437557146 562.7514592199915 C 469.9109437557146 560.5423202206683 471.7018047563914 558.7514592199915 473.9109437557146 558.7514592199915 C 476.12008275503774 558.7514592199915 477.9109437557146 560.5423202206683 477.9109437557146 562.7514592199915 Z" fill-opacity="1"/><path fill="none" stroke="rgb(0,0,0)" paint-order="fill stroke markers" d=" M 477.9109437557146 562.7514592199915 C 477.9109437557146 564.9605982193146 476.12008275503774 566.7514592199915 473.9109437557146 566.7514592199915 C 471.7018047563914 566.7514592199915 469.9109437557146 564.9605982193146 469.9109437557146 562.7514592199915 C 469.9109437557146 560.5423202206683 471.7018047563914 558.7514592199915 473.9109437557146 558.7514592199915 C 476.12008275503774 558.7514592199915 477.9109437557146 560.5423202206683 477.9109437557146 562.7514592199915 Z" stroke-opacity="1" stroke-linecap="round" stroke-linejoin="round" stroke-miterlimit="10"/><text fill="rgb(110,109,115)" stroke="none" font-family="geogebra-sans-serif, sans-serif" font-size="16px" font-style="normal" font-weight="normal" text-decoration="normal" x="478" y="555" text-anchor="start" dominant-baseline="alphabetic" fill-opacity="1">C</text></g></g></svg>