<svg version="1.1" xmlns="http://www.w3.org/2000/svg" xmlns:xlink="http://www.w3.org/1999/xlink" width="1124" height="722"><defs><clipPath id="pxXhmZvohBNx"><path fill="none" stroke="none" d=" M 0 0 L 1124 0 L 1124 722 L 0 722 L 0 0 Z"/></clipPath></defs><g transform="scale(1,1)" clip-path="url(#pxXhmZvohBNx)"><g><rect fill="rgb(255,255,255)" stroke="none" x="0" y="0" width="1124" height="722" fill-opacity="1"/><path fill="none" stroke="rgb(37,37,37)" paint-order="fill stroke markers" d=" M 228.5 2.5 L 228.5 722.5" stroke-opacity="1" stroke-miterlimit="10"/><path fill="none" stroke="rgb(37,37,37)" paint-order="fill stroke markers" d=" M 228.5 1.5 L 224.5 5.5" stroke-opacity="1" stroke-miterlimit="10"/><path fill="none" stroke="rgb(37,37,37)" paint-order="fill stroke markers" d=" M 228.5 1.5 L 232.5 5.5" stroke-opacity="1" stroke-miterlimit="10"/><path fill="none" stroke="rgb(37,37,37)" paint-order="fill stroke markers" d=" M 0.5 556.5 L 1122.5 556.5" stroke-opacity="1" stroke-miterlimit="10"/><path fill="none" stroke="rgb(37,37,37)" paint-order="fill stroke markers" d=" M 1123.5 556.5 L 1119.5 552.5" stroke-opacity="1" stroke-miterlimit="10"/><path fill="none" stroke="rgb(37,37,37)" paint-order="fill stroke markers" d=" M 1123.5 556.5 L 1119.5 560.5" stroke-opacity="1" stroke-miterlimit="10"/><path fill="none" stroke="rgb(255,0,0)" paint-order="fill stroke markers" d=" M 432.39005943492737 352.6160925246322 C 432.39005943492737 465.3690931118545 340.9856926101993 556.7734599365825 228.2326920229768 556.7734599365825 C 115.47969143575432 556.7734599365825 24.07532461102622 465.3690931118545 24.07532461102622 352.6160925246322 C 24.07532461102622 239.86309193740988 115.47969143575432 148.45872511268192 228.2326920229768 148.45872511268192 C 340.9856926101993 148.45872511268192 432.39005943492737 239.86309193740988 432.39005943492737 352.6160925246322 Z" stroke-opacity="0.6980392156862745" stroke-linecap="round" stroke-linejoin="round" stroke-miterlimit="10" stroke-width="2.5"/><path fill="rgb(0,100,0)" stroke="none" paint-order="stroke fill markers" d=" M 277.4730796735872 343.9336836412857 C 273.25956181323176 320.03763640321733 252.4973743073903 302.61609252463234 228.2326920229768 302.61609252463234 L 228.2326920229768 352.6160925246322 Z" fill-opacity="0.09803921568627451"/><path fill="none" stroke="rgb(0,100,0)" paint-order="fill stroke markers" d=" M 277.4730796735872 343.9336836412857 C 273.25956181323176 320.03763640321733 252.4973743073903 302.61609252463234 228.2326920229768 302.61609252463234 L 228.2326920229768 352.6160925246322 Z" stroke-opacity="0.6980392156862745" stroke-linecap="round" stroke-linejoin="round" stroke-miterlimit="10" stroke-width="2.5"/><text fill="rgb(0,100,0)" stroke="none" font-family="geogebra-sans-serif, sans-serif" font-size="16px" font-style="normal" font-weight="normal" text-decoration="normal" x="241" y="337" text-anchor="start" dominant-baseline="alphabetic" fill-opacity="1">θ</text><path fill="none" stroke="rgb(0,0,0)" paint-order="fill stroke markers" d=" M 228.2326920229768 352.6160925246322 L 429.28845028482766 317.164537716269" stroke-opacity="0.6980392156862745" stroke-linecap="round" stroke-linejoin="round" stroke-miterlimit="10" stroke-width="2.5"/><path fill="none" stroke="rgb(0,0,0)" paint-order="fill stroke markers" d=" M 228.2326920229768 148.45872511268192 L 1124 900.0967428568658" stroke-opacity="0.6980392156862745" stroke-linecap="round" stroke-linejoin="round" stroke-miterlimit="10" stroke-width="2.5"/><path fill="rgb(110,109,115)" stroke="none" paint-order="stroke fill markers" d=" M 232.2326920229768 352.6160925246322 C 232.2326920229768 354.8252315239554 230.4418310223 356.6160925246322 228.2326920229768 356.6160925246322 C 226.02355302365362 356.6160925246322 224.2326920229768 354.8252315239554 224.2326920229768 352.6160925246322 C 224.2326920229768 350.40695352530906 226.02355302365362 348.6160925246322 228.2326920229768 348.6160925246322 C 230.4418310223 348.6160925246322 232.2326920229768 350.40695352530906 232.2326920229768 352.6160925246322 Z" fill-opacity="1"/><path fill="none" stroke="rgb(0,0,0)" paint-order="fill stroke markers" d=" M 232.2326920229768 352.6160925246322 C 232.2326920229768 354.8252315239554 230.4418310223 356.6160925246322 228.2326920229768 356.6160925246322 C 226.02355302365362 356.6160925246322 224.2326920229768 354.8252315239554 224.2326920229768 352.6160925246322 C 224.2326920229768 350.40695352530906 226.02355302365362 348.6160925246322 228.2326920229768 348.6160925246322 C 230.4418310223 348.6160925246322 232.2326920229768 350.40695352530906 232.2326920229768 352.6160925246322 Z" stroke-opacity="1" stroke-linecap="round" stroke-linejoin="round" stroke-miterlimit="10"/><path fill="rgb(110,109,115)" stroke="none" paint-order="stroke fill markers" d=" M 232.2326920229768 148.45872511268192 C 232.2326920229768 150.66786411200508 230.4418310223 152.45872511268192 228.2326920229768 152.45872511268192 C 226.02355302365362 152.45872511268192 224.2326920229768 150.66786411200508 224.2326920229768 148.45872511268192 C 224.2326920229768 146.24958611335873 226.02355302365362 144.45872511268192 228.2326920229768 144.45872511268192 C 230.4418310223 144.45872511268192 232.2326920229768 146.24958611335873 232.2326920229768 148.45872511268192 Z" fill-opacity="1"/><path fill="none" stroke="rgb(0,0,0)" paint-order="fill stroke markers" d=" M 232.2326920229768 148.45872511268192 C 232.2326920229768 150.66786411200508 230.4418310223 152.45872511268192 228.2326920229768 152.45872511268192 C 226.02355302365362 152.45872511268192 224.2326920229768 150.66786411200508 224.2326920229768 148.45872511268192 C 224.2326920229768 146.24958611335873 226.02355302365362 144.45872511268192 228.2326920229768 144.45872511268192 C 230.4418310223 144.45872511268192 232.2326920229768 146.24958611335873 232.2326920229768 148.45872511268192 Z" stroke-opacity="1" stroke-linecap="round" stroke-linejoin="round" stroke-miterlimit="10"/><text fill="rgb(110,109,115)" stroke="none" font-family="geogebra-sans-serif, sans-serif" font-size="16px" font-style="normal" font-weight="normal" text-decoration="normal" x="232" y="140" text-anchor="start" dominant-baseline="alphabetic" fill-opacity="1">A</text><path fill="rgb(110,109,115)" stroke="none" paint-order="stroke fill markers" d=" M 433.28845028482766 317.164537716269 C 433.28845028482766 319.3736767155922 431.4975892841508 321.164537716269 429.28845028482766 321.164537716269 C 427.0793112855045 321.164537716269 425.28845028482766 319.3736767155922 425.28845028482766 317.164537716269 C 425.28845028482766 314.95539871694587 427.0793112855045 313.164537716269 429.28845028482766 313.164537716269 C 431.4975892841508 313.164537716269 433.28845028482766 314.95539871694587 433.28845028482766 317.164537716269 Z" fill-opacity="1"/><path fill="none" stroke="rgb(0,0,0)" paint-order="fill stroke markers" d=" M 433.28845028482766 317.164537716269 C 433.28845028482766 319.3736767155922 431.4975892841508 321.164537716269 429.28845028482766 321.164537716269 C 427.0793112855045 321.164537716269 425.28845028482766 319.3736767155922 425.28845028482766 317.164537716269 C 425.28845028482766 314.95539871694587 427.0793112855045 313.164537716269 429.28845028482766 313.164537716269 C 431.4975892841508 313.164537716269 433.28845028482766 314.95539871694587 433.28845028482766 317.164537716269 Z" stroke-opacity="1" stroke-linecap="round" stroke-linejoin="round" stroke-miterlimit="10"/><text fill="rgb(110,109,115)" stroke="none" font-family="geogebra-sans-serif, sans-serif" font-size="16px" font-style="normal" font-weight="normal" text-decoration="normal" x="433" y="309" text-anchor="start" dominant-baseline="alphabetic" fill-opacity="1">B</text><path fill="rgb(110,109,115)" stroke="none" paint-order="stroke fill markers" d=" M 718.8432441585134 556.7734599365825 C 718.8432441585134 558.9825989359057 717.0523831578365 560.7734599365825 714.8432441585134 560.7734599365825 C 712.6341051591902 560.7734599365825 710.8432441585134 558.9825989359057 710.8432441585134 556.7734599365825 C 710.8432441585134 554.5643209372594 712.6341051591902 552.7734599365825 714.8432441585134 552.7734599365825 C 717.0523831578365 552.7734599365825 718.8432441585134 554.5643209372594 718.8432441585134 556.7734599365825 Z" fill-opacity="1"/><path fill="none" stroke="rgb(0,0,0)" paint-order="fill stroke markers" d=" M 718.8432441585134 556.7734599365825 C 718.8432441585134 558.9825989359057 717.0523831578365 560.7734599365825 714.8432441585134 560.7734599365825 C 712.6341051591902 560.7734599365825 710.8432441585134 558.9825989359057 710.8432441585134 556.7734599365825 C 710.8432441585134 554.5643209372594 712.6341051591902 552.7734599365825 714.8432441585134 552.7734599365825 C 717.0523831578365 552.7734599365825 718.8432441585134 554.5643209372594 718.8432441585134 556.7734599365825 Z" stroke-opacity="1" stroke-linecap="round" stroke-linejoin="round" stroke-miterlimit="10"/><text fill="rgb(110,109,115)" stroke="none" font-family="geogebra-sans-serif, sans-serif" font-size="16px" font-style="normal" font-weight="normal" text-decoration="normal" x="719" y="549" text-anchor="start" dominant-baseline="alphabetic" fill-opacity="1">C</text></g></g></svg>