<svg version="1.1" xmlns="http://www.w3.org/2000/svg" xmlns:xlink="http://www.w3.org/1999/xlink" width="664" height="722"><defs><clipPath id="cxQNWycPmuIZ"><path fill="none" stroke="none" d=" M 0 0 L 664 0 L 664 722 L 0 722 L 0 0 Z"/></clipPath></defs><g transform="scale(1,1)" clip-path="url(#cxQNWycPmuIZ)"><g><rect fill="rgb(255,255,255)" stroke="none" x="0" y="0" width="664" height="722" fill-opacity="1"/><path fill="none" stroke="rgb(37,37,37)" paint-order="fill stroke markers" d=" M 222.5 2.5 L 222.5 722.5" stroke-opacity="1" stroke-miterlimit="10"/><path fill="none" stroke="rgb(37,37,37)" paint-order="fill stroke markers" d=" M 222.5 1.5 L 218.5 5.5" stroke-opacity="1" stroke-miterlimit="10"/><path fill="none" stroke="rgb(37,37,37)" paint-order="fill stroke markers" d=" M 222.5 1.5 L 226.5 5.5" stroke-opacity="1" stroke-miterlimit="10"/><path fill="none" stroke="rgb(37,37,37)" paint-order="fill stroke markers" d=" M 0.5 498.5 L 662.5 498.5" stroke-opacity="1" stroke-miterlimit="10"/><path fill="none" stroke="rgb(37,37,37)" paint-order="fill stroke markers" d=" M 663.5 498.5 L 659.5 494.5" stroke-opacity="1" stroke-miterlimit="10"/><path fill="none" stroke="rgb(37,37,37)" paint-order="fill stroke markers" d=" M 663.5 498.5 L 659.5 502.5" stroke-opacity="1" stroke-miterlimit="10"/><path fill="none" stroke="rgb(0,0,0)" paint-order="fill stroke markers" d=" M 383.8027693620852 336.5400307053842 C 383.8027693620852 425.8404302006918 311.4104921672124 498.2327073955645 222.1100926719047 498.2327073955645 C 132.80969317659702 498.2327073955645 60.41741598172422 425.8404302006918 60.41741598172422 336.5400307053842 C 60.41741598172422 247.2396312100766 132.80969317659702 174.84735401520388 222.1100926719047 174.84735401520388 C 311.4104921672124 174.84735401520388 383.8027693620852 247.2396312100766 383.8027693620852 336.5400307053842 Z" stroke-opacity="0.6980392156862745" stroke-linecap="round" stroke-linejoin="round" stroke-miterlimit="10" stroke-width="2.5"/><path fill="none" stroke="rgb(0,0,0)" paint-order="fill stroke markers" d=" M -5 169.08980843452946 L 669 557.9793089880374" stroke-opacity="0.6980392156862745" stroke-linecap="round" stroke-linejoin="round" stroke-miterlimit="10" stroke-width="2.5"/><path fill="rgb(110,109,115)" stroke="none" paint-order="stroke fill markers" d=" M 226.1100926719047 336.5400307053842 C 226.1100926719047 338.74916970470736 224.3192316712279 340.5400307053842 222.1100926719047 340.5400307053842 C 219.90095367258152 340.5400307053842 218.1100926719047 338.74916970470736 218.1100926719047 336.5400307053842 C 218.1100926719047 334.33089170606104 219.90095367258152 332.5400307053842 222.1100926719047 332.5400307053842 C 224.3192316712279 332.5400307053842 226.1100926719047 334.33089170606104 226.1100926719047 336.5400307053842 Z" fill-opacity="1"/><path fill="none" stroke="rgb(0,0,0)" paint-order="fill stroke markers" d=" M 226.1100926719047 336.5400307053842 C 226.1100926719047 338.74916970470736 224.3192316712279 340.5400307053842 222.1100926719047 340.5400307053842 C 219.90095367258152 340.5400307053842 218.1100926719047 338.74916970470736 218.1100926719047 336.5400307053842 C 218.1100926719047 334.33089170606104 219.90095367258152 332.5400307053842 222.1100926719047 332.5400307053842 C 224.3192316712279 332.5400307053842 226.1100926719047 334.33089170606104 226.1100926719047 336.5400307053842 Z" stroke-opacity="1" stroke-linecap="round" stroke-linejoin="round" stroke-miterlimit="10"/><text fill="rgb(110,109,115)" stroke="none" font-family="geogebra-sans-serif, sans-serif" font-size="16px" font-style="normal" font-weight="normal" text-decoration="normal" x="229" y="346" text-anchor="start" dominant-baseline="alphabetic" fill-opacity="1">P</text><path fill="rgb(110,109,115)" stroke="none" paint-order="stroke fill markers" d=" M 226.1100926719047 174.84735401520385 C 226.1100926719047 177.056493014527 224.3192316712279 178.84735401520385 222.1100926719047 178.84735401520385 C 219.90095367258152 178.84735401520385 218.1100926719047 177.056493014527 218.1100926719047 174.84735401520385 C 218.1100926719047 172.63821501588066 219.90095367258152 170.84735401520385 222.1100926719047 170.84735401520385 C 224.3192316712279 170.84735401520385 226.1100926719047 172.63821501588066 226.1100926719047 174.84735401520385 Z" fill-opacity="1"/><path fill="none" stroke="rgb(0,0,0)" paint-order="fill stroke markers" d=" M 226.1100926719047 174.84735401520385 C 226.1100926719047 177.056493014527 224.3192316712279 178.84735401520385 222.1100926719047 178.84735401520385 C 219.90095367258152 178.84735401520385 218.1100926719047 177.056493014527 218.1100926719047 174.84735401520385 C 218.1100926719047 172.63821501588066 219.90095367258152 170.84735401520385 222.1100926719047 170.84735401520385 C 224.3192316712279 170.84735401520385 226.1100926719047 172.63821501588066 226.1100926719047 174.84735401520385 Z" stroke-opacity="1" stroke-linecap="round" stroke-linejoin="round" stroke-miterlimit="10"/><text fill="rgb(110,109,115)" stroke="none" font-family="geogebra-sans-serif, sans-serif" font-size="16px" font-style="normal" font-weight="normal" text-decoration="normal" x="226" y="167" text-anchor="start" dominant-baseline="alphabetic" fill-opacity="1">A</text><path fill="rgb(125,125,255)" stroke="none" paint-order="stroke fill markers" d=" M 380.23352760480327 388.4797589448119 C 380.23352760480327 391.24118269396587 377.9949513539572 393.4797589448119 375.23352760480327 393.4797589448119 C 372.4721038556493 393.4797589448119 370.23352760480327 391.24118269396587 370.23352760480327 388.4797589448119 C 370.23352760480327 385.71833519565797 372.4721038556493 383.4797589448119 375.23352760480327 383.4797589448119 C 377.9949513539572 383.4797589448119 380.23352760480327 385.71833519565797 380.23352760480327 388.4797589448119 Z" fill-opacity="1"/><path fill="none" stroke="rgb(0,0,0)" paint-order="fill stroke markers" d=" M 380.23352760480327 388.4797589448119 C 380.23352760480327 391.24118269396587 377.9949513539572 393.4797589448119 375.23352760480327 393.4797589448119 C 372.4721038556493 393.4797589448119 370.23352760480327 391.24118269396587 370.23352760480327 388.4797589448119 C 370.23352760480327 385.71833519565797 372.4721038556493 383.4797589448119 375.23352760480327 383.4797589448119 C 377.9949513539572 383.4797589448119 380.23352760480327 385.71833519565797 380.23352760480327 388.4797589448119 Z" stroke-opacity="1" stroke-linecap="round" stroke-linejoin="round" stroke-miterlimit="10"/><text fill="rgb(125,125,255)" stroke="none" font-family="geogebra-sans-serif, sans-serif" font-size="16px" font-style="normal" font-weight="normal" text-decoration="normal" x="387" y="387" text-anchor="start" dominant-baseline="alphabetic" fill-opacity="1">I</text><text fill="rgb(125,125,255)" stroke="none" font-family="geogebra-sans-serif, sans-serif" font-size="14px" font-style="normal" font-weight="normal" text-decoration="normal" x="391" y="394" text-anchor="start" dominant-baseline="alphabetic" fill-opacity="1">2</text><path fill="rgb(125,125,255)" stroke="none" paint-order="stroke fill markers" d=" M 105.50921433746932 229.9672945880776 C 105.50921433746932 232.72871833723158 103.27063808662328 234.9672945880776 100.50921433746932 234.9672945880776 C 97.74779058831535 234.9672945880776 95.50921433746932 232.72871833723158 95.50921433746932 229.9672945880776 C 95.50921433746932 227.20587083892363 97.74779058831535 224.9672945880776 100.50921433746932 224.9672945880776 C 103.27063808662328 224.9672945880776 105.50921433746932 227.20587083892363 105.50921433746932 229.9672945880776 Z" fill-opacity="1"/><path fill="none" stroke="rgb(0,0,0)" paint-order="fill stroke markers" d=" M 105.50921433746932 229.9672945880776 C 105.50921433746932 232.72871833723158 103.27063808662328 234.9672945880776 100.50921433746932 234.9672945880776 C 97.74779058831535 234.9672945880776 95.50921433746932 232.72871833723158 95.50921433746932 229.9672945880776 C 95.50921433746932 227.20587083892363 97.74779058831535 224.9672945880776 100.50921433746932 224.9672945880776 C 103.27063808662328 224.9672945880776 105.50921433746932 227.20587083892363 105.50921433746932 229.9672945880776 Z" stroke-opacity="1" stroke-linecap="round" stroke-linejoin="round" stroke-miterlimit="10"/><text fill="rgb(125,125,255)" stroke="none" font-family="geogebra-sans-serif, sans-serif" font-size="16px" font-style="normal" font-weight="normal" text-decoration="normal" x="93" y="209" text-anchor="start" dominant-baseline="alphabetic" fill-opacity="1">I</text><text fill="rgb(125,125,255)" stroke="none" font-family="geogebra-sans-serif, sans-serif" font-size="14px" font-style="normal" font-weight="normal" text-decoration="normal" x="97" y="216" text-anchor="start" dominant-baseline="alphabetic" fill-opacity="1">1</text><path fill="rgb(110,109,115)" stroke="none" paint-order="stroke fill markers" d=" M 569.450767079051 498.2327073955645 C 569.450767079051 500.44184639488765 567.6599060783742 502.2327073955645 565.450767079051 502.2327073955645 C 563.2416280797279 502.2327073955645 561.450767079051 500.44184639488765 561.450767079051 498.2327073955645 C 561.450767079051 496.02356839624133 563.2416280797279 494.2327073955645 565.450767079051 494.2327073955645 C 567.6599060783742 494.2327073955645 569.450767079051 496.02356839624133 569.450767079051 498.2327073955645 Z" fill-opacity="1"/><path fill="none" stroke="rgb(0,0,0)" paint-order="fill stroke markers" d=" M 569.450767079051 498.2327073955645 C 569.450767079051 500.44184639488765 567.6599060783742 502.2327073955645 565.450767079051 502.2327073955645 C 563.2416280797279 502.2327073955645 561.450767079051 500.44184639488765 561.450767079051 498.2327073955645 C 561.450767079051 496.02356839624133 563.2416280797279 494.2327073955645 565.450767079051 494.2327073955645 C 567.6599060783742 494.2327073955645 569.450767079051 496.02356839624133 569.450767079051 498.2327073955645 Z" stroke-opacity="1" stroke-linecap="round" stroke-linejoin="round" stroke-miterlimit="10"/><text fill="rgb(110,109,115)" stroke="none" font-family="geogebra-sans-serif, sans-serif" font-size="16px" font-style="normal" font-weight="normal" text-decoration="normal" x="569" y="490" text-anchor="start" dominant-baseline="alphabetic" fill-opacity="1">D</text><path fill="rgb(110,109,115)" stroke="none" paint-order="stroke fill markers" d=" M 226.1100926719047 300.12946794467473 C 226.1100926719047 302.3386069439979 224.3192316712279 304.12946794467473 222.1100926719047 304.12946794467473 C 219.90095367258152 304.12946794467473 218.1100926719047 302.3386069439979 218.1100926719047 300.12946794467473 C 218.1100926719047 297.92032894535157 219.90095367258152 296.12946794467473 222.1100926719047 296.12946794467473 C 224.3192316712279 296.12946794467473 226.1100926719047 297.92032894535157 226.1100926719047 300.12946794467473 Z" fill-opacity="1"/><path fill="none" stroke="rgb(0,0,0)" paint-order="fill stroke markers" d=" M 226.1100926719047 300.12946794467473 C 226.1100926719047 302.3386069439979 224.3192316712279 304.12946794467473 222.1100926719047 304.12946794467473 C 219.90095367258152 304.12946794467473 218.1100926719047 302.3386069439979 218.1100926719047 300.12946794467473 C 218.1100926719047 297.92032894535157 219.90095367258152 296.12946794467473 222.1100926719047 296.12946794467473 C 224.3192316712279 296.12946794467473 226.1100926719047 297.92032894535157 226.1100926719047 300.12946794467473 Z" stroke-opacity="1" stroke-linecap="round" stroke-linejoin="round" stroke-miterlimit="10"/><text fill="rgb(110,109,115)" stroke="none" font-family="geogebra-sans-serif, sans-serif" font-size="16px" font-style="normal" font-weight="normal" text-decoration="normal" x="226" y="292" text-anchor="start" dominant-baseline="alphabetic" fill-opacity="1">E</text></g></g></svg>