<svg version="1.1" xmlns="http://www.w3.org/2000/svg" xmlns:xlink="http://www.w3.org/1999/xlink" width="1124" height="722"><defs><clipPath id="DePzmcnJtKSC"><path fill="none" stroke="none" d=" M 0 0 L 1124 0 L 1124 722 L 0 722 L 0 0 Z"/></clipPath></defs><g transform="scale(1,1)" clip-path="url(#DePzmcnJtKSC)"><g><rect fill="rgb(255,255,255)" stroke="none" x="0" y="0" width="1124" height="722" fill-opacity="1"/><path fill="none" stroke="rgb(37,37,37)" paint-order="fill stroke markers" d=" M 566.5 2.5 L 566.5 722.5" stroke-opacity="1" stroke-miterlimit="10"/><path fill="none" stroke="rgb(37,37,37)" paint-order="fill stroke markers" d=" M 566.5 1.5 L 562.5 5.5" stroke-opacity="1" stroke-miterlimit="10"/><path fill="none" stroke="rgb(37,37,37)" paint-order="fill stroke markers" d=" M 566.5 1.5 L 570.5 5.5" stroke-opacity="1" stroke-miterlimit="10"/><path fill="none" stroke="rgb(37,37,37)" paint-order="fill stroke markers" d=" M 0.5 408.5 L 1122.5 408.5" stroke-opacity="1" stroke-miterlimit="10"/><path fill="none" stroke="rgb(37,37,37)" paint-order="fill stroke markers" d=" M 1123.5 408.5 L 1119.5 404.5" stroke-opacity="1" stroke-miterlimit="10"/><path fill="none" stroke="rgb(37,37,37)" paint-order="fill stroke markers" d=" M 1123.5 408.5 L 1119.5 412.5" stroke-opacity="1" stroke-miterlimit="10"/><path fill="none" stroke="rgb(0,0,0)" paint-order="fill stroke markers" d=" M 670.4679140644623 305.14991528892136 C 670.4679140644623 362.30493875888703 624.1346129202202 408.63823990312915 566.9795894502544 408.63823990312915 C 509.8245659802886 408.63823990312915 463.4912648360464 362.30493875888703 463.4912648360464 305.14991528892136 C 463.4912648360464 247.9948918189557 509.8245659802886 201.66159067471358 566.9795894502544 201.66159067471358 C 624.1346129202202 201.66159067471358 670.4679140644623 247.9948918189557 670.4679140644623 305.14991528892136 Z" stroke-opacity="0.6980392156862745" stroke-linecap="round" stroke-linejoin="round" stroke-miterlimit="10" stroke-width="2.5"/><path fill="none" stroke="rgb(255,0,0)" paint-order="fill stroke markers" d=" M -5 202.73450846812463 L 1129 467.3345084681241" stroke-opacity="0.6980392156862745" stroke-linecap="round" stroke-linejoin="round" stroke-miterlimit="10" stroke-width="2.5"/><path fill="none" stroke="rgb(0,0,255)" paint-order="fill stroke markers" d=" M 566.9795894502544 201.6615906747136 L 80.50534114916042 722" stroke-opacity="0.6980392156862745" stroke-linecap="round" stroke-linejoin="round" stroke-miterlimit="10" stroke-width="2.5"/><path fill="none" stroke="rgb(0,0,255)" paint-order="fill stroke markers" d=" M 566.9795894502544 201.6615906747136 L 866.6656908140656 722" stroke-opacity="0.6980392156862745" stroke-linecap="round" stroke-linejoin="round" stroke-miterlimit="10" stroke-width="2.5"/><path fill="rgb(110,109,115)" stroke="none" paint-order="stroke fill markers" d=" M 570.9795894502544 305.14991528892136 C 570.9795894502544 307.3590542882445 569.1887284495775 309.14991528892136 566.9795894502544 309.14991528892136 C 564.7704504509312 309.14991528892136 562.9795894502544 307.3590542882445 562.9795894502544 305.14991528892136 C 562.9795894502544 302.9407762895982 564.7704504509312 301.14991528892136 566.9795894502544 301.14991528892136 C 569.1887284495775 301.14991528892136 570.9795894502544 302.9407762895982 570.9795894502544 305.14991528892136 Z" fill-opacity="1"/><path fill="none" stroke="rgb(0,0,0)" paint-order="fill stroke markers" d=" M 570.9795894502544 305.14991528892136 C 570.9795894502544 307.3590542882445 569.1887284495775 309.14991528892136 566.9795894502544 309.14991528892136 C 564.7704504509312 309.14991528892136 562.9795894502544 307.3590542882445 562.9795894502544 305.14991528892136 C 562.9795894502544 302.9407762895982 564.7704504509312 301.14991528892136 566.9795894502544 301.14991528892136 C 569.1887284495775 301.14991528892136 570.9795894502544 302.9407762895982 570.9795894502544 305.14991528892136 Z" stroke-opacity="1" stroke-linecap="round" stroke-linejoin="round" stroke-miterlimit="10"/><path fill="rgb(110,109,115)" stroke="none" paint-order="stroke fill markers" d=" M 881.4445632928782 408.63823990312915 C 881.4445632928782 410.8473789024523 879.6537022922014 412.63823990312915 877.4445632928782 412.63823990312915 C 875.2354242935551 412.63823990312915 873.4445632928782 410.8473789024523 873.4445632928782 408.63823990312915 C 873.4445632928782 406.429100903806 875.2354242935551 404.63823990312915 877.4445632928782 404.63823990312915 C 879.6537022922014 404.63823990312915 881.4445632928782 406.429100903806 881.4445632928782 408.63823990312915 Z" fill-opacity="1"/><path fill="none" stroke="rgb(0,0,0)" paint-order="fill stroke markers" d=" M 881.4445632928782 408.63823990312915 C 881.4445632928782 410.8473789024523 879.6537022922014 412.63823990312915 877.4445632928782 412.63823990312915 C 875.2354242935551 412.63823990312915 873.4445632928782 410.8473789024523 873.4445632928782 408.63823990312915 C 873.4445632928782 406.429100903806 875.2354242935551 404.63823990312915 877.4445632928782 404.63823990312915 C 879.6537022922014 404.63823990312915 881.4445632928782 406.429100903806 881.4445632928782 408.63823990312915 Z" stroke-opacity="1" stroke-linecap="round" stroke-linejoin="round" stroke-miterlimit="10"/><text fill="rgb(110,109,115)" stroke="none" font-family="geogebra-sans-serif, sans-serif" font-size="16px" font-style="normal" font-weight="normal" text-decoration="normal" x="881" y="401" text-anchor="start" dominant-baseline="alphabetic" fill-opacity="1">c'</text><path fill="rgb(110,109,115)" stroke="none" paint-order="stroke fill markers" d=" M 570.9795894502544 336.1964126731837 C 570.9795894502544 338.4055516725069 569.1887284495775 340.1964126731837 566.9795894502544 340.1964126731837 C 564.7704504509312 340.1964126731837 562.9795894502544 338.4055516725069 562.9795894502544 336.1964126731837 C 562.9795894502544 333.98727367386056 564.7704504509312 332.1964126731837 566.9795894502544 332.1964126731837 C 569.1887284495775 332.1964126731837 570.9795894502544 333.98727367386056 570.9795894502544 336.1964126731837 Z" fill-opacity="1"/><path fill="none" stroke="rgb(0,0,0)" paint-order="fill stroke markers" d=" M 570.9795894502544 336.1964126731837 C 570.9795894502544 338.4055516725069 569.1887284495775 340.1964126731837 566.9795894502544 340.1964126731837 C 564.7704504509312 340.1964126731837 562.9795894502544 338.4055516725069 562.9795894502544 336.1964126731837 C 562.9795894502544 333.98727367386056 564.7704504509312 332.1964126731837 566.9795894502544 332.1964126731837 C 569.1887284495775 332.1964126731837 570.9795894502544 333.98727367386056 570.9795894502544 336.1964126731837 Z" stroke-opacity="1" stroke-linecap="round" stroke-linejoin="round" stroke-miterlimit="10"/><text fill="rgb(110,109,115)" stroke="none" font-family="geogebra-sans-serif, sans-serif" font-size="16px" font-style="normal" font-weight="normal" text-decoration="normal" x="574" y="364" text-anchor="start" dominant-baseline="alphabetic" fill-opacity="1">b'</text></g></g></svg>